<svg xmlns="http://www.w3.org/2000/svg" width="820" height="560" viewBox="0 0 820 560" font-family="Helvetica, Arial, sans-serif" font-size="12">
<rect width="100%" height="100%" fill="white"/>
<text x="340.0" y="22" text-anchor="middle" font-size="16" font-weight="600">Roofline — matmul shape sweep (DDR3-800)</text>
<rect x="80" y="40" width="520" height="450" fill="none" stroke="#333"/>
<line x1="80.0" y1="40" x2="80.0" y2="490" stroke="#bbb" stroke-dasharray=""/>
<text x="80.0" y="505" text-anchor="middle">0.1</text>
<line x1="142.5" y1="40" x2="142.5" y2="490" stroke="#eee" stroke-dasharray="2,2"/>
<line x1="225.1" y1="40" x2="225.1" y2="490" stroke="#eee" stroke-dasharray="2,2"/>
<line x1="287.6" y1="40" x2="287.6" y2="490" stroke="#bbb" stroke-dasharray=""/>
<text x="287.6" y="505" text-anchor="middle">1</text>
<line x1="350.1" y1="40" x2="350.1" y2="490" stroke="#eee" stroke-dasharray="2,2"/>
<line x1="432.7" y1="40" x2="432.7" y2="490" stroke="#eee" stroke-dasharray="2,2"/>
<line x1="495.1" y1="40" x2="495.1" y2="490" stroke="#bbb" stroke-dasharray=""/>
<text x="495.1" y="505" text-anchor="middle">10</text>
<line x1="557.6" y1="40" x2="557.6" y2="490" stroke="#eee" stroke-dasharray="2,2"/>
<line x1="80" y1="490.0" x2="600" y2="490.0" stroke="#eee" stroke-dasharray="2,2"/>
<line x1="80" y1="433.8" x2="600" y2="433.8" stroke="#bbb" stroke-dasharray=""/>
<text x="74" y="437.8" text-anchor="end">1</text>
<line x1="80" y1="377.5" x2="600" y2="377.5" stroke="#eee" stroke-dasharray="2,2"/>
<line x1="80" y1="303.1" x2="600" y2="303.1" stroke="#eee" stroke-dasharray="2,2"/>
<line x1="80" y1="246.9" x2="600" y2="246.9" stroke="#bbb" stroke-dasharray=""/>
<text x="74" y="250.9" text-anchor="end">10</text>
<line x1="80" y1="190.6" x2="600" y2="190.6" stroke="#eee" stroke-dasharray="2,2"/>
<line x1="80" y1="116.3" x2="600" y2="116.3" stroke="#eee" stroke-dasharray="2,2"/>
<line x1="80" y1="60.0" x2="600" y2="60.0" stroke="#bbb" stroke-dasharray=""/>
<text x="74" y="64.0" text-anchor="end">100</text>
<text x="340.0" y="535" text-anchor="middle" font-size="13">Arithmetic intensity (MAC / DRAM byte)</text>
<text transform="translate(20,265.0) rotate(-90)" text-anchor="middle" font-size="13">Performance (MAC / fabric cycle)</text>
<polyline fill="none" stroke="#1f77b4" stroke-width="2.2" points="80.0,372.3 386.6,96.2 600.0,96.2"/>
<polyline fill="none" stroke="#1f77b4" stroke-width="2" stroke-dasharray="6,4" points="80.0,416.3 435.5,96.2 600.0,96.2"/>
<text x="594" y="90.2" text-anchor="end" fill="#1f77b4" font-weight="600">Compute roof: 64 MAC/cycle</text>
<text x="618" y="48" font-weight="600">M x N x K  (AI, MAC/cycle)</text>
<circle cx="323.5" cy="218.4" r="5" fill="#d62728" stroke="white" stroke-width="1.2"/>
<circle cx="624" cy="64" r="5" fill="#d62728"/>
<text x="636" y="68" font-size="11">128×128×128  (1.49, 14.2)</text>
<circle cx="344.2" cy="218.7" r="5" fill="#ff7f0e" stroke="white" stroke-width="1.2"/>
<circle cx="624" cy="82" r="5" fill="#ff7f0e"/>
<text x="636" y="86" font-size="11">128×64×128  (1.87, 14.1)</text>
<circle cx="303.1" cy="219.4" r="5" fill="#2ca02c" stroke="white" stroke-width="1.2"/>
<circle cx="624" cy="100" r="5" fill="#2ca02c"/>
<text x="636" y="104" font-size="11">128×256×128  (1.19, 14.0)</text>
<circle cx="330.3" cy="223.0" r="5" fill="#9467bd" stroke="white" stroke-width="1.2"/>
<circle cx="624" cy="118" r="5" fill="#9467bd"/>
<text x="636" y="122" font-size="11">128×128×64  (1.61, 13.4)</text>
<circle cx="290.8" cy="218.8" r="5" fill="#8c564b" stroke="white" stroke-width="1.2"/>
<circle cx="624" cy="136" r="5" fill="#8c564b"/>
<text x="636" y="140" font-size="11">128×128×256  (1.04, 14.1)</text>
<circle cx="353.8" cy="226.2" r="5" fill="#e377c2" stroke="white" stroke-width="1.2"/>
<circle cx="624" cy="154" r="5" fill="#e377c2"/>
<text x="636" y="158" font-size="11">64×64×64  (2.09, 12.9)</text>
<circle cx="309.8" cy="218.8" r="5" fill="#7f7f7f" stroke="white" stroke-width="1.2"/>
<circle cx="624" cy="172" r="5" fill="#7f7f7f"/>
<text x="636" y="176" font-size="11">256×128×128  (1.28, 14.1)</text>
<circle cx="338.5" cy="217.2" r="5" fill="#bcbd22" stroke="white" stroke-width="1.2"/>
<circle cx="624" cy="190" r="5" fill="#bcbd22"/>
<text x="636" y="194" font-size="11">64×256×128  (1.76, 14.4)</text>
</svg>