<svg xmlns="http://www.w3.org/2000/svg" width="760" height="520" viewBox="0 0 760 520" font-family="Helvetica, Arial, sans-serif" font-size="12">
<rect width="100%" height="100%" fill="white"/>
<text x="380.0" y="22" text-anchor="middle" font-size="16" font-weight="600">Roofline — matmul (128x128x128 INT8, DDR3-800)</text>
<rect x="80" y="40" width="640" height="410" fill="none" stroke="#333"/>
<line x1="80.0" y1="40" x2="80.0" y2="450" stroke="#bbb" stroke-dasharray=""/>
<text x="80.0" y="465" text-anchor="middle">0.1</text>
<line x1="156.9" y1="40" x2="156.9" y2="450" stroke="#eee" stroke-dasharray="2,2"/>
<text x="156.9" y="465" text-anchor="middle">0.2</text>
<line x1="258.6" y1="40" x2="258.6" y2="450" stroke="#eee" stroke-dasharray="2,2"/>
<text x="258.6" y="465" text-anchor="middle">0.5</text>
<line x1="335.5" y1="40" x2="335.5" y2="450" stroke="#bbb" stroke-dasharray=""/>
<text x="335.5" y="465" text-anchor="middle">1</text>
<line x1="412.4" y1="40" x2="412.4" y2="450" stroke="#eee" stroke-dasharray="2,2"/>
<text x="412.4" y="465" text-anchor="middle">2</text>
<line x1="514.0" y1="40" x2="514.0" y2="450" stroke="#eee" stroke-dasharray="2,2"/>
<text x="514.0" y="465" text-anchor="middle">5</text>
<line x1="590.9" y1="40" x2="590.9" y2="450" stroke="#bbb" stroke-dasharray=""/>
<text x="590.9" y="465" text-anchor="middle">10</text>
<line x1="667.9" y1="40" x2="667.9" y2="450" stroke="#eee" stroke-dasharray="2,2"/>
<text x="667.9" y="465" text-anchor="middle">20</text>
<line x1="80" y1="450.0" x2="720" y2="450.0" stroke="#eee" stroke-dasharray="2,2"/>
<line x1="80" y1="398.8" x2="720" y2="398.8" stroke="#bbb" stroke-dasharray=""/>
<text x="74" y="402.8" text-anchor="end">1</text>
<line x1="80" y1="347.5" x2="720" y2="347.5" stroke="#eee" stroke-dasharray="2,2"/>
<text x="74" y="351.5" text-anchor="end">2</text>
<line x1="80" y1="279.8" x2="720" y2="279.8" stroke="#eee" stroke-dasharray="2,2"/>
<text x="74" y="283.8" text-anchor="end">5</text>
<line x1="80" y1="228.5" x2="720" y2="228.5" stroke="#bbb" stroke-dasharray=""/>
<text x="74" y="232.5" text-anchor="end">10</text>
<line x1="80" y1="177.3" x2="720" y2="177.3" stroke="#eee" stroke-dasharray="2,2"/>
<text x="74" y="181.3" text-anchor="end">20</text>
<line x1="80" y1="109.5" x2="720" y2="109.5" stroke="#eee" stroke-dasharray="2,2"/>
<text x="74" y="113.5" text-anchor="end">50</text>
<line x1="80" y1="58.3" x2="720" y2="58.3" stroke="#bbb" stroke-dasharray=""/>
<text x="74" y="62.3" text-anchor="end">100</text>
<text x="400.0" y="495" text-anchor="middle" font-size="13">Arithmetic intensity (MAC / DRAM byte)</text>
<text transform="translate(20,245.0) rotate(-90)" text-anchor="middle" font-size="13">Performance (MAC / fabric cycle)</text>
<polyline fill="none" stroke="#1f77b4" stroke-width="2.2" points="80.0,342.7 457.4,91.2 720.0,91.2"/>
<polyline fill="none" stroke="#1f77b4" stroke-width="2" stroke-dasharray="6,4" points="80.0,382.8 517.6,91.2 720.0,91.2"/>
<text x="714" y="85.2" text-anchor="end" fill="#1f77b4" font-weight="600">Compute roof: 64 MAC/cycle (VDOT8, op-collector limited)</text>
<text x="151.2" y="293.3" fill="#1f77b4" font-weight="600">DRAM peak (data-bus floor): 21.3 B/cycle</text>
<text x="151.2" y="333.4" fill="#1f77b4">DRAM sustained: 12.4 B/cycle</text>
<circle cx="382.7" cy="202.4" r="6" fill="#d62728" stroke="white" stroke-width="1.5"/>
<text x="392.7" y="194.4" fill="#d62728" font-weight="600">matmul: AI=1.53 MAC/B, 14.24 MAC/cycle</text>
<line x1="382.7" y1="202.4" x2="382.7" y2="450" stroke="#d62728" stroke-dasharray="3,3" stroke-width="1"/>
<text x="80" y="512" font-size="11" fill="#444">147,288 cycles  |  2,097,145 MACs  |  1,369,856 DRAM bytes  |  compute util 22.2%  |  mem-roof util 75.0% (sustained) / 43.6% (peak)</text>
</svg>