<?xml version="1.0" encoding="UTF-8" standalone="no"?>
<!DOCTYPE svg PUBLIC "-//W3C//DTD SVG 1.1//EN"
 "http://www.w3.org/Graphics/SVG/1.1/DTD/svg11.dtd">
<!-- Generated by graphviz version 2.43.0 (0)
 -->
<!-- Title: signal_flow Pages: 1 -->
<svg width="1609pt" height="1322pt"
 viewBox="0.00 0.00 1608.98 1322.44" xmlns="http://www.w3.org/2000/svg" xmlns:xlink="http://www.w3.org/1999/xlink">
<g id="graph0" class="graph" transform="scale(1 1) rotate(0) translate(28.8 1293.64)">
<title>signal_flow</title>
<polygon fill="white" stroke="transparent" points="-28.8,28.8 -28.8,-1293.64 1580.18,-1293.64 1580.18,28.8 -28.8,28.8"/>
<text text-anchor="start" x="678.19" y="-1246.64" font-family="Helvetica,sans-Serif" font-weight="bold" font-size="14.00">Timing&#45;model signal flow</text>
<text text-anchor="start" x="644.19" y="-1236.64" font-family="Helvetica,sans-Serif" font-size="9.00">generated from sim/{include,src}/timing/ via libclang AST</text>
<text text-anchor="start" x="448.69" y="-1217.64" font-family="Helvetica,sans-Serif" font-size="14.00" fill="#1f2937">━━</text>
<text text-anchor="start" x="465.69" y="-1217.64" font-family="Helvetica,sans-Serif" font-size="14.00"> REGISTERED (1&#45;cycle)</text>
<text text-anchor="start" x="630.69" y="-1217.64" font-family="Helvetica,sans-Serif" font-size="14.00" fill="#d97706">┄┄</text>
<text text-anchor="start" x="647.69" y="-1217.64" font-family="Helvetica,sans-Serif" font-size="14.00"> COMBINATIONAL (same&#45;cycle)</text>
<text text-anchor="start" x="869.69" y="-1217.64" font-family="Helvetica,sans-Serif" font-size="14.00" fill="#2563eb">▷</text>
<text text-anchor="start" x="880.69" y="-1217.64" font-family="Helvetica,sans-Serif" font-size="14.00"> back&#45;pressure direction overlay</text>
<g id="clust1" class="cluster">
<title>cluster_Control</title>
<path fill="#ede9fe" stroke="#9ca3af" d="M44.62,-1058.4C44.62,-1058.4 1539.38,-1058.4 1539.38,-1058.4 1545.38,-1058.4 1551.38,-1064.4 1551.38,-1070.4 1551.38,-1070.4 1551.38,-1192.84 1551.38,-1192.84 1551.38,-1198.84 1545.38,-1204.84 1539.38,-1204.84 1539.38,-1204.84 44.62,-1204.84 44.62,-1204.84 38.62,-1204.84 32.62,-1198.84 32.62,-1192.84 32.62,-1192.84 32.62,-1070.4 32.62,-1070.4 32.62,-1064.4 38.62,-1058.4 44.62,-1058.4"/>
<polygon fill="white" stroke="transparent" points="762,-1064.4 762,-1084.4 823,-1084.4 823,-1064.4 762,-1064.4"/>
<text text-anchor="start" x="765" y="-1072" font-family="Helvetica,sans-Serif" font-weight="bold" font-size="13.00">Control</text>
</g>
<g id="clust2" class="cluster">
<title>cluster_Frontend_and_Issue</title>
<path fill="#dbeafe" stroke="#9ca3af" d="M44.62,-352.8C44.62,-352.8 444.98,-352.8 444.98,-352.8 450.98,-352.8 456.98,-358.8 456.98,-364.8 456.98,-364.8 456.98,-840.04 456.98,-840.04 456.98,-846.04 450.98,-852.04 444.98,-852.04 444.98,-852.04 44.62,-852.04 44.62,-852.04 38.62,-852.04 32.62,-846.04 32.62,-840.04 32.62,-840.04 32.62,-364.8 32.62,-364.8 32.62,-358.8 38.62,-352.8 44.62,-352.8"/>
<polygon fill="white" stroke="transparent" points="179.8,-358.8 179.8,-378.8 309.8,-378.8 309.8,-358.8 179.8,-358.8"/>
<text text-anchor="start" x="182.8" y="-366.4" font-family="Helvetica,sans-Serif" font-weight="bold" font-size="13.00">Frontend &amp; Issue</text>
</g>
<g id="clust3" class="cluster">
<title>cluster_Execute</title>
<path fill="#fef3c7" stroke="#9ca3af" d="M591.82,0C591.82,0 718.58,0 718.58,0 724.58,0 730.58,-6 730.58,-12 730.58,-12 730.58,-840.04 730.58,-840.04 730.58,-846.04 724.58,-852.04 718.58,-852.04 718.58,-852.04 591.82,-852.04 591.82,-852.04 585.82,-852.04 579.82,-846.04 579.82,-840.04 579.82,-840.04 579.82,-12 579.82,-12 579.82,-6 585.82,0 591.82,0"/>
<polygon fill="white" stroke="transparent" points="623.2,-6 623.2,-26 687.2,-26 687.2,-6 623.2,-6"/>
<text text-anchor="start" x="626.2" y="-13.6" font-family="Helvetica,sans-Serif" font-weight="bold" font-size="13.00">Execute</text>
</g>
<g id="clust4" class="cluster">
<title>cluster_Memory</title>
<path fill="#dcfce7" stroke="#9ca3af" d="M865.42,-352.8C865.42,-352.8 1539.38,-352.8 1539.38,-352.8 1545.38,-352.8 1551.38,-358.8 1551.38,-364.8 1551.38,-364.8 1551.38,-663.64 1551.38,-663.64 1551.38,-669.64 1545.38,-675.64 1539.38,-675.64 1539.38,-675.64 865.42,-675.64 865.42,-675.64 859.42,-675.64 853.42,-669.64 853.42,-663.64 853.42,-663.64 853.42,-364.8 853.42,-364.8 853.42,-358.8 859.42,-352.8 865.42,-352.8"/>
<polygon fill="white" stroke="transparent" points="1169.4,-358.8 1169.4,-378.8 1235.4,-378.8 1235.4,-358.8 1169.4,-358.8"/>
<text text-anchor="start" x="1172.4" y="-366.4" font-family="Helvetica,sans-Serif" font-weight="bold" font-size="13.00">Memory</text>
</g>
<g id="clust5" class="cluster">
<title>cluster_Writeback</title>
<path fill="#fee2e2" stroke="#9ca3af" d="M1139.02,-88.2C1139.02,-88.2 1265.78,-88.2 1265.78,-88.2 1271.78,-88.2 1277.78,-94.2 1277.78,-100.2 1277.78,-100.2 1277.78,-222.64 1277.78,-222.64 1277.78,-228.64 1271.78,-234.64 1265.78,-234.64 1265.78,-234.64 1139.02,-234.64 1139.02,-234.64 1133.02,-234.64 1127.02,-228.64 1127.02,-222.64 1127.02,-222.64 1127.02,-100.2 1127.02,-100.2 1127.02,-94.2 1133.02,-88.2 1139.02,-88.2"/>
<polygon fill="white" stroke="transparent" points="1161.4,-94.2 1161.4,-114.2 1243.4,-114.2 1243.4,-94.2 1161.4,-94.2"/>
<text text-anchor="start" x="1164.4" y="-101.8" font-family="Helvetica,sans-Serif" font-weight="bold" font-size="13.00">Writeback</text>
</g>
<!-- PanicController&#45;&gt;WarpScheduler -->
<g id="edge37" class="edge">
<title>PanicController&#45;&gt;WarpScheduler</title>
<g id="a_edge37"><a xlink:title="flush">
<path fill="none" stroke="#1f2937" d="M624.41,-1103.44C530.28,-982.06 246.59,-616.25 144.83,-485.03"/>
<polygon fill="#1f2937" stroke="#1f2937" points="147.58,-482.86 138.68,-477.1 142.04,-487.15 147.58,-482.86"/>
</a>
</g>
<text text-anchor="middle" x="372.62" y="-797.23" font-family="Helvetica,sans-Serif" font-size="10.00">flush</text>
</g>
<!-- PanicController&#45;&gt;OperandCollector -->
<g id="edge36" class="edge">
<title>PanicController&#45;&gt;OperandCollector</title>
<g id="a_edge36"><a xlink:title="flush">
<path fill="none" stroke="#1f2937" d="M649.46,-1103.44C604.26,-986.86 463.1,-622.82 410.24,-486.51"/>
<polygon fill="#1f2937" stroke="#1f2937" points="413.47,-485.15 406.59,-477.09 406.94,-487.68 413.47,-485.15"/>
</a>
</g>
<text text-anchor="middle" x="517.85" y="-797.97" font-family="Helvetica,sans-Serif" font-size="10.00">flush</text>
</g>
<!-- PanicController&#45;&gt;LoadGatherBufferFile -->
<g id="edge35" class="edge">
<title>PanicController&#45;&gt;LoadGatherBufferFile</title>
<g id="a_edge35"><a xlink:title="flush">
<path fill="none" stroke="#1f2937" d="M685.99,-1103.44C780.12,-982.06 1063.81,-616.25 1165.57,-485.03"/>
<polygon fill="#1f2937" stroke="#1f2937" points="1168.36,-487.15 1171.72,-477.1 1162.82,-482.86 1168.36,-487.15"/>
</a>
</g>
<text text-anchor="middle" x="913.78" y="-797.23" font-family="Helvetica,sans-Serif" font-size="10.00">flush</text>
</g>
<!-- PanicController&#45;&gt;WritebackArbiter -->
<g id="edge38" class="edge">
<title>PanicController&#45;&gt;WritebackArbiter</title>
<g id="a_edge38"><a xlink:title="flush">
<path fill="none" stroke="#1f2937" d="M687.97,-1103.35C779.24,-941.54 1094.48,-382.6 1185.47,-221.28"/>
<polygon fill="#1f2937" stroke="#1f2937" points="1188.52,-222.99 1190.39,-212.56 1182.43,-219.55 1188.52,-222.99"/>
</a>
</g>
<text text-anchor="middle" x="924.72" y="-665.31" font-family="Helvetica,sans-Serif" font-size="10.00">flush</text>
</g>
<!-- FetchStage&#45;&gt;DecodeStage -->
<g id="edge16" class="edge">
<title>FetchStage&#45;&gt;DecodeStage</title>
<g id="a_edge16"><a xlink:title="output">
<path fill="none" stroke="#1f2937" d="M117,-750.75C117,-725.08 117,-691.42 117,-663.91"/>
<polygon fill="#1f2937" stroke="#1f2937" points="120.5,-663.7 117,-653.7 113.5,-663.7 120.5,-663.7"/>
</a>
</g>
<text text-anchor="middle" x="101" y="-710.33" font-family="Helvetica,sans-Serif" font-size="10.00">output</text>
</g>
<!-- FetchStage&#45;&gt;BranchShadowTracker -->
<g id="edge15" class="edge">
<title>FetchStage&#45;&gt;BranchShadowTracker</title>
<g id="a_edge15"><a xlink:title="redirect applied">
<path fill="none" stroke="#1f2937" d="M158.5,-790.34C204.34,-790.34 272.03,-790.34 320.82,-790.34"/>
<polygon fill="#1f2937" stroke="#1f2937" points="320.93,-793.84 330.93,-790.34 320.93,-786.84 320.93,-793.84"/>
</a>
</g>
<text text-anchor="middle" x="201.16" y="-793.34" font-family="Helvetica,sans-Serif" font-size="10.00">redirect applied</text>
</g>
<!-- DecodeStage&#45;&gt;TimingModel -->
<g id="edge11" class="edge">
<title>DecodeStage&#45;&gt;TimingModel</title>
<g id="a_edge11"><a xlink:title="ebreak">
<path fill="none" stroke="#1f2937" d="M158.72,-633.56C370.85,-715.62 1186.56,-1031.17 1415.78,-1119.84"/>
<polygon fill="#1f2937" stroke="#1f2937" points="1414.7,-1123.18 1425.29,-1123.52 1417.22,-1116.65 1414.7,-1123.18"/>
</a>
</g>
<text text-anchor="middle" x="770.25" y="-879.7" font-family="Helvetica,sans-Serif" font-size="10.00">ebreak</text>
</g>
<!-- DecodeStage&#45;&gt;FetchStage -->
<g id="edge10" class="edge">
<title>DecodeStage&#45;&gt;FetchStage</title>
<g id="a_edge10"><a xlink:title="busy / pending warp">
<path fill="none" stroke="#2563eb" d="M99,-653.53C99,-679.2 99,-712.86 99,-740.37"/>
<polygon fill="none" stroke="#2563eb" points="95.5,-740.58 99,-750.58 102.5,-740.58 95.5,-740.58"/>
</a>
</g>
<text text-anchor="middle" x="49.5" y="-699.95" font-family="Helvetica,sans-Serif" font-size="10.00">busy / pending warp</text>
</g>
<!-- WarpScheduler&#45;&gt;Scoreboard -->
<g id="edge44" class="edge">
<title>WarpScheduler&#45;&gt;Scoreboard</title>
<g id="a_edge44"><a xlink:title="scoreboard">
<path fill="none" stroke="#1f2937" d="M152.67,-477.05C200.46,-507.86 272.64,-554.4 322.08,-586.28"/>
<polygon fill="#1f2937" stroke="#1f2937" points="320.43,-589.37 330.73,-591.85 324.22,-583.49 320.43,-589.37"/>
</a>
</g>
<text text-anchor="middle" x="209.88" y="-534.66" font-family="Helvetica,sans-Serif" font-size="10.00">scoreboard</text>
</g>
<!-- WarpScheduler&#45;&gt;BranchShadowTracker -->
<g id="edge42" class="edge">
<title>WarpScheduler&#45;&gt;BranchShadowTracker</title>
<g id="a_edge42"><a xlink:title="branch issued">
<path fill="none" stroke="#1f2937" d="M127.37,-477.2C175.15,-538.81 276.09,-668.97 333.07,-742.45"/>
<polygon fill="#1f2937" stroke="#1f2937" points="330.56,-744.93 339.46,-750.68 336.09,-740.64 330.56,-744.93"/>
</a>
</g>
<text text-anchor="middle" x="196.22" y="-612.83" font-family="Helvetica,sans-Serif" font-size="10.00">branch issued</text>
</g>
<!-- WarpScheduler&#45;&gt;OperandCollector -->
<g id="edge43" class="edge">
<title>WarpScheduler&#45;&gt;OperandCollector</title>
<g id="a_edge43"><a xlink:title="output">
<path fill="none" stroke="#1f2937" d="M158.5,-437.54C204.34,-437.54 272.03,-437.54 320.82,-437.54"/>
<polygon fill="#1f2937" stroke="#1f2937" points="320.93,-441.04 330.93,-437.54 320.93,-434.04 320.93,-441.04"/>
</a>
</g>
<text text-anchor="middle" x="223.66" y="-440.54" font-family="Helvetica,sans-Serif" font-size="10.00">output</text>
</g>
<!-- Scoreboard&#45;&gt;WarpScheduler -->
<g id="edge39" class="edge">
<title>Scoreboard&#45;&gt;WarpScheduler</title>
<g id="a_edge39"><a xlink:title="scoreboard">
<path fill="none" stroke="#2563eb" d="M336.93,-574.43C289.14,-543.62 216.96,-497.08 167.52,-465.2"/>
<polygon fill="none" stroke="#2563eb" points="169.17,-462.11 158.87,-459.63 165.38,-467.99 169.17,-462.11"/>
</a>
</g>
<text text-anchor="middle" x="224.72" y="-522.82" font-family="Helvetica,sans-Serif" font-size="10.00">scoreboard</text>
</g>
<!-- BranchShadowTracker&#45;&gt;WarpScheduler -->
<g id="edge6" class="edge">
<title>BranchShadowTracker&#45;&gt;WarpScheduler</title>
<g id="a_edge6"><a xlink:title="in flight">
<path fill="none" stroke="#2563eb" d="M362.23,-750.68C314.45,-689.07 213.51,-558.91 156.53,-485.43"/>
<polygon fill="none" stroke="#2563eb" points="159.04,-482.95 150.14,-477.2 153.51,-487.24 159.04,-482.95"/>
</a>
</g>
<text text-anchor="middle" x="277.88" y="-621.05" font-family="Helvetica,sans-Serif" font-size="10.00">in flight</text>
</g>
<!-- OperandCollector&#45;&gt;PanicController -->
<g id="edge33" class="edge">
<title>OperandCollector&#45;&gt;PanicController</title>
<g id="a_edge33"><a xlink:title="drained">
<path fill="none" stroke="#1f2937" d="M387.34,-477.24C432.54,-593.82 573.7,-957.86 626.56,-1094.17"/>
<polygon fill="#1f2937" stroke="#1f2937" points="623.33,-1095.53 630.21,-1103.59 629.86,-1093 623.33,-1095.53"/>
</a>
</g>
<text text-anchor="middle" x="488.45" y="-777.71" font-family="Helvetica,sans-Serif" font-size="10.00">drained</text>
</g>
<!-- OperandCollector&#45;&gt;ALUUnit -->
<g id="edge29" class="edge">
<title>OperandCollector&#45;&gt;ALUUnit</title>
<g id="a_edge29"><a xlink:title="output">
<path fill="none" stroke="#1f2937" d="M412.45,-477.32C463.08,-542.61 563.6,-672.22 618.05,-742.44"/>
<polygon fill="#1f2937" stroke="#1f2937" points="615.57,-744.94 624.46,-750.7 621.1,-740.65 615.57,-744.94"/>
</a>
</g>
<text text-anchor="middle" x="499.25" y="-612.88" font-family="Helvetica,sans-Serif" font-size="10.00">output</text>
</g>
<!-- OperandCollector&#45;&gt;MultiplyUnit -->
<g id="edge32" class="edge">
<title>OperandCollector&#45;&gt;MultiplyUnit</title>
<g id="a_edge32"><a xlink:title="output">
<path fill="none" stroke="#1f2937" d="M432.1,-470.1C478.42,-499.96 547.05,-544.21 595.95,-575.74"/>
<polygon fill="#1f2937" stroke="#1f2937" points="594.23,-578.79 604.53,-581.27 598.02,-572.91 594.23,-578.79"/>
</a>
</g>
<text text-anchor="middle" x="498.02" y="-525.92" font-family="Helvetica,sans-Serif" font-size="10.00">output</text>
</g>
<!-- OperandCollector&#45;&gt;DivideUnit -->
<g id="edge30" class="edge">
<title>OperandCollector&#45;&gt;DivideUnit</title>
<g id="a_edge30"><a xlink:title="output">
<path fill="none" stroke="#1f2937" d="M432.1,-437.54C477.94,-437.54 545.63,-437.54 594.42,-437.54"/>
<polygon fill="#1f2937" stroke="#1f2937" points="594.53,-441.04 604.53,-437.54 594.53,-434.04 594.53,-441.04"/>
</a>
</g>
<text text-anchor="middle" x="497.26" y="-440.54" font-family="Helvetica,sans-Serif" font-size="10.00">output</text>
</g>
<!-- OperandCollector&#45;&gt;TLookupUnit -->
<g id="edge34" class="edge">
<title>OperandCollector&#45;&gt;TLookupUnit</title>
<g id="a_edge34"><a xlink:title="output">
<path fill="none" stroke="#1f2937" d="M432.1,-404.98C478.42,-375.12 547.05,-330.87 595.95,-299.34"/>
<polygon fill="#1f2937" stroke="#1f2937" points="598.02,-302.17 604.53,-293.81 594.23,-296.29 598.02,-302.17"/>
</a>
</g>
<text text-anchor="middle" x="498.02" y="-355.16" font-family="Helvetica,sans-Serif" font-size="10.00">output</text>
</g>
<!-- OperandCollector&#45;&gt;LdStUnit -->
<g id="edge31" class="edge">
<title>OperandCollector&#45;&gt;LdStUnit</title>
<g id="a_edge31"><a xlink:title="output">
<path fill="none" stroke="#1f2937" d="M412.45,-397.76C463.08,-332.47 563.6,-202.86 618.05,-132.64"/>
<polygon fill="#1f2937" stroke="#1f2937" points="621.1,-134.43 624.46,-124.38 615.57,-130.14 621.1,-134.43"/>
</a>
</g>
<text text-anchor="middle" x="499.25" y="-268.2" font-family="Helvetica,sans-Serif" font-size="10.00">output</text>
</g>
<!-- ALUUnit&#45;&gt;PanicController -->
<g id="edge4" class="edge">
<title>ALUUnit&#45;&gt;PanicController</title>
<g id="a_edge4"><a xlink:title="drained">
<path fill="none" stroke="#1f2937" d="M655.2,-830.12C655.2,-894.75 655.2,-1022.39 655.2,-1093.08"/>
<polygon fill="#1f2937" stroke="#1f2937" points="651.7,-1093.5 655.2,-1103.5 658.7,-1093.5 651.7,-1093.5"/>
</a>
</g>
<text text-anchor="middle" x="636.7" y="-964.6" font-family="Helvetica,sans-Serif" font-size="10.00">drained</text>
</g>
<!-- ALUUnit&#45;&gt;FetchStage -->
<g id="edge3" class="edge">
<title>ALUUnit&#45;&gt;FetchStage</title>
<g id="a_edge3"><a xlink:title="redirect">
<path fill="none" stroke="#2563eb" stroke-dasharray="5,2" d="M604.21,-790.34C503.07,-790.34 277.47,-790.34 168.8,-790.34"/>
<polygon fill="none" stroke="#2563eb" points="168.66,-786.84 158.66,-790.34 168.66,-793.84 168.66,-786.84"/>
</a>
</g>
<text text-anchor="middle" x="367.51" y="-782.34" font-family="Helvetica,sans-Serif" font-size="10.00">redirect</text>
</g>
<!-- ALUUnit&#45;&gt;DecodeStage -->
<g id="edge2" class="edge">
<title>ALUUnit&#45;&gt;DecodeStage</title>
<g id="a_edge2"><a xlink:title="redirect">
<path fill="none" stroke="#2563eb" stroke-dasharray="5,2" d="M604.21,-773.9C502.97,-741.27 277.01,-668.42 168.47,-633.44"/>
<polygon fill="none" stroke="#2563eb" points="169.25,-630.01 158.66,-630.27 167.1,-636.67 169.25,-630.01"/>
</a>
</g>
<text text-anchor="middle" x="367.34" y="-706.67" font-family="Helvetica,sans-Serif" font-size="10.00">redirect</text>
</g>
<!-- ALUUnit&#45;&gt;BranchShadowTracker -->
<g id="edge1" class="edge">
<title>ALUUnit&#45;&gt;BranchShadowTracker</title>
<g id="a_edge1"><a xlink:title="resolved correctly">
<path fill="none" stroke="#2563eb" d="M604.7,-790.34C558.86,-790.34 491.17,-790.34 442.38,-790.34"/>
<polygon fill="none" stroke="#2563eb" points="442.27,-786.84 432.27,-790.34 442.27,-793.84 442.27,-786.84"/>
</a>
</g>
<text text-anchor="middle" x="545.54" y="-782.34" font-family="Helvetica,sans-Serif" font-size="10.00">resolved correctly</text>
</g>
<!-- ALUUnit&#45;&gt;WritebackArbiter -->
<g id="edge5" class="edge">
<title>ALUUnit&#45;&gt;WritebackArbiter</title>
<g id="a_edge5"><a xlink:title="result">
<path fill="none" stroke="#1f2937" d="M702.39,-750.66C805.01,-634.88 1074.25,-331.1 1172.54,-220.2"/>
<polygon fill="#1f2937" stroke="#1f2937" points="1175.3,-222.36 1179.32,-212.55 1170.06,-217.72 1175.3,-222.36"/>
</a>
</g>
<text text-anchor="middle" x="923.47" y="-488.43" font-family="Helvetica,sans-Serif" font-size="10.00">result</text>
</g>
<!-- MultiplyUnit&#45;&gt;PanicController -->
<g id="edge27" class="edge">
<title>MultiplyUnit&#45;&gt;PanicController</title>
<g id="a_edge27"><a xlink:title="drained">
<path fill="none" stroke="#1f2937" d="M655.2,-653.72C655.2,-748.76 655.2,-988.92 655.2,-1093.36"/>
<polygon fill="#1f2937" stroke="#1f2937" points="651.7,-1093.62 655.2,-1103.62 658.7,-1093.62 651.7,-1093.62"/>
</a>
</g>
<text text-anchor="middle" x="636.7" y="-876.54" font-family="Helvetica,sans-Serif" font-size="10.00">drained</text>
</g>
<!-- MultiplyUnit&#45;&gt;WritebackArbiter -->
<g id="edge28" class="edge">
<title>MultiplyUnit&#45;&gt;WritebackArbiter</title>
<g id="a_edge28"><a xlink:title="result">
<path fill="none" stroke="#1f2937" d="M706.09,-584.48C808.04,-502.32 1054.95,-303.33 1159.73,-218.89"/>
<polygon fill="#1f2937" stroke="#1f2937" points="1162.04,-221.52 1167.63,-212.52 1157.65,-216.07 1162.04,-221.52"/>
</a>
</g>
<text text-anchor="middle" x="918.91" y="-404.68" font-family="Helvetica,sans-Serif" font-size="10.00">result</text>
</g>
<!-- DivideUnit&#45;&gt;PanicController -->
<g id="edge12" class="edge">
<title>DivideUnit&#45;&gt;PanicController</title>
<g id="a_edge12"><a xlink:title="drained">
<path fill="none" stroke="#1f2937" d="M655.2,-477.24C655.2,-597.89 655.2,-960.06 655.2,-1093.27"/>
<polygon fill="#1f2937" stroke="#1f2937" points="651.7,-1093.58 655.2,-1103.58 658.7,-1093.58 651.7,-1093.58"/>
</a>
</g>
<text text-anchor="middle" x="636.7" y="-788.26" font-family="Helvetica,sans-Serif" font-size="10.00">drained</text>
</g>
<!-- DivideUnit&#45;&gt;WritebackArbiter -->
<g id="edge13" class="edge">
<title>DivideUnit&#45;&gt;WritebackArbiter</title>
<g id="a_edge13"><a xlink:title="result">
<path fill="none" stroke="#1f2937" d="M705.77,-423.08C803.81,-375.67 1031.34,-265.65 1142.66,-211.82"/>
<polygon fill="#1f2937" stroke="#1f2937" points="1144.29,-214.92 1151.77,-207.42 1141.24,-208.62 1144.29,-214.92"/>
</a>
</g>
<text text-anchor="middle" x="910.22" y="-320.45" font-family="Helvetica,sans-Serif" font-size="10.00">result</text>
</g>
<!-- TLookupUnit&#45;&gt;PanicController -->
<g id="edge40" class="edge">
<title>TLookupUnit&#45;&gt;PanicController</title>
<g id="a_edge40"><a xlink:title="drained">
<path fill="none" stroke="#1f2937" d="M655.2,-300.75C655.2,-443.94 655.2,-934.61 655.2,-1093.24"/>
<polygon fill="#1f2937" stroke="#1f2937" points="651.7,-1093.64 655.2,-1103.64 658.7,-1093.64 651.7,-1093.64"/>
</a>
</g>
<text text-anchor="middle" x="636.7" y="-699.99" font-family="Helvetica,sans-Serif" font-size="10.00">drained</text>
</g>
<!-- TLookupUnit&#45;&gt;WritebackArbiter -->
<g id="edge41" class="edge">
<title>TLookupUnit&#45;&gt;WritebackArbiter</title>
<g id="a_edge41"><a xlink:title="result">
<path fill="none" stroke="#1f2937" d="M706.16,-262.04C806.16,-245.92 1032,-209.52 1141.7,-191.84"/>
<polygon fill="#1f2937" stroke="#1f2937" points="1142.31,-195.29 1151.63,-190.24 1141.2,-188.38 1142.31,-195.29"/>
</a>
</g>
<text text-anchor="middle" x="909.93" y="-229.94" font-family="Helvetica,sans-Serif" font-size="10.00">result</text>
</g>
<!-- LdStUnit&#45;&gt;PanicController -->
<g id="edge22" class="edge">
<title>LdStUnit&#45;&gt;PanicController</title>
<g id="a_edge22"><a xlink:title="drained">
<path fill="none" stroke="#1f2937" d="M655.2,-124.3C655.2,-287.93 655.2,-911.8 655.2,-1093.32"/>
<polygon fill="#1f2937" stroke="#1f2937" points="651.7,-1093.38 655.2,-1103.38 658.7,-1093.38 651.7,-1093.38"/>
</a>
</g>
<text text-anchor="middle" x="636.7" y="-611.81" font-family="Helvetica,sans-Serif" font-size="10.00">drained</text>
</g>
<!-- LdStUnit&#45;&gt;WarpScheduler -->
<g id="edge23" class="edge">
<title>LdStUnit&#45;&gt;WarpScheduler</title>
<g id="a_edge23"><a xlink:title="fifo size / fifo total pushes / fifo capacity">
<path fill="none" stroke="#2563eb" d="M604.21,-117.61C502.56,-183.15 275.19,-329.75 167.17,-399.39"/>
<polygon fill="none" stroke="#2563eb" points="165.17,-396.52 158.66,-404.88 168.96,-402.4 165.17,-396.52"/>
</a>
</g>
<text text-anchor="middle" x="287.69" y="-261.5" font-family="Helvetica,sans-Serif" font-size="10.00">fifo size / fifo total pushes / fifo capacity</text>
</g>
<!-- LdStUnit&#45;&gt;CoalescingUnit -->
<g id="edge21" class="edge">
<title>LdStUnit&#45;&gt;CoalescingUnit</title>
<g id="a_edge21"><a xlink:title="fifo empty / fifo front">
<path fill="none" stroke="#1f2937" d="M665.58,-124.42C712.67,-215.5 837.87,-457.66 893.5,-565.26"/>
<polygon fill="#1f2937" stroke="#1f2937" points="890.48,-567.05 898.19,-574.32 896.7,-563.83 890.48,-567.05"/>
</a>
</g>
<text text-anchor="middle" x="728.54" y="-347.84" font-family="Helvetica,sans-Serif" font-size="10.00">fifo empty / fifo front</text>
</g>
<!-- LdStUnit&#45;&gt;WritebackArbiter -->
<g id="edge24" class="edge">
<title>LdStUnit&#45;&gt;WritebackArbiter</title>
<g id="a_edge24"><a xlink:title="result">
<path fill="none" stroke="#1f2937" d="M705.74,-102C807.82,-118.46 1033.94,-154.9 1141.67,-172.27"/>
<polygon fill="#1f2937" stroke="#1f2937" points="1141.28,-175.75 1151.71,-173.89 1142.4,-168.84 1141.28,-175.75"/>
</a>
</g>
<text text-anchor="middle" x="909.7" y="-140.13" font-family="Helvetica,sans-Serif" font-size="10.00">result</text>
</g>
<!-- CoalescingUnit&#45;&gt;LdStUnit -->
<g id="edge8" class="edge">
<title>CoalescingUnit&#45;&gt;LdStUnit</title>
<g id="a_edge8"><a xlink:title="pop front">
<path fill="none" stroke="#2563eb" d="M918.42,-574.26C871.33,-483.18 746.13,-241.02 690.5,-133.42"/>
<polygon fill="none" stroke="#2563eb" points="693.52,-131.63 685.81,-124.36 687.3,-134.85 693.52,-131.63"/>
</a>
</g>
<text text-anchor="middle" x="826.96" y="-356.84" font-family="Helvetica,sans-Serif" font-size="10.00">pop front</text>
</g>
<!-- CoalescingUnit&#45;&gt;LoadGatherBufferFile -->
<g id="edge9" class="edge">
<title>CoalescingUnit&#45;&gt;LoadGatherBufferFile</title>
<g id="a_edge9"><a xlink:title="claim">
<path fill="none" stroke="#1f2937" d="M979.47,-591.98C1026.06,-561.94 1098.43,-515.28 1149.07,-482.63"/>
<polygon fill="#1f2937" stroke="#1f2937" points="1151.12,-485.48 1157.63,-477.12 1147.32,-479.59 1151.12,-485.48"/>
</a>
</g>
<text text-anchor="middle" x="1050.27" y="-540.31" font-family="Helvetica,sans-Serif" font-size="10.00">claim</text>
</g>
<!-- CoalescingUnit&#45;&gt;L1Cache -->
<g id="edge7" class="edge">
<title>CoalescingUnit&#45;&gt;L1Cache</title>
<g id="a_edge7"><a xlink:title="next load cmd / next store cmd">
<path fill="none" stroke="#1f2937" d="M979.3,-622.94C1025.14,-622.94 1092.83,-622.94 1141.62,-622.94"/>
<polygon fill="#1f2937" stroke="#1f2937" points="1141.73,-626.44 1151.73,-622.94 1141.73,-619.44 1141.73,-626.44"/>
</a>
</g>
<text text-anchor="middle" x="1060.46" y="-614.94" font-family="Helvetica,sans-Serif" font-size="10.00">next load cmd / next store cmd</text>
</g>
<!-- LoadGatherBufferFile&#45;&gt;CoalescingUnit -->
<g id="edge25" class="edge">
<title>LoadGatherBufferFile&#45;&gt;CoalescingUnit</title>
<g id="a_edge25"><a xlink:title="busy">
<path fill="none" stroke="#2563eb" d="M1151.73,-459.5C1105.14,-489.54 1032.77,-536.2 982.13,-568.85"/>
<polygon fill="none" stroke="#2563eb" points="980.08,-566 973.57,-574.36 983.88,-571.89 980.08,-566"/>
</a>
</g>
<text text-anchor="middle" x="1054.93" y="-517.17" font-family="Helvetica,sans-Serif" font-size="10.00">busy</text>
</g>
<!-- LoadGatherBufferFile&#45;&gt;WritebackArbiter -->
<g id="edge26" class="edge">
<title>LoadGatherBufferFile&#45;&gt;WritebackArbiter</title>
<g id="a_edge26"><a xlink:title="result">
<path fill="none" stroke="#1f2937" d="M1202.4,-397.93C1202.4,-351.26 1202.4,-273.67 1202.4,-222.91"/>
<polygon fill="#1f2937" stroke="#1f2937" points="1205.9,-222.82 1202.4,-212.82 1198.9,-222.82 1205.9,-222.82"/>
</a>
</g>
<text text-anchor="middle" x="1188.4" y="-313.42" font-family="Helvetica,sans-Serif" font-size="10.00">result</text>
</g>
<!-- L1Cache&#45;&gt;TimingModel -->
<g id="edge20" class="edge">
<title>L1Cache&#45;&gt;TimingModel</title>
<g id="a_edge20"><a xlink:title="trace events">
<path fill="none" stroke="#1f2937" d="M1222.96,-653.72C1272.3,-749.15 1397.27,-990.86 1450.91,-1094.62"/>
<polygon fill="#1f2937" stroke="#1f2937" points="1447.87,-1096.35 1455.57,-1103.62 1454.09,-1093.13 1447.87,-1096.35"/>
</a>
</g>
<text text-anchor="middle" x="1306.44" y="-877.17" font-family="Helvetica,sans-Serif" font-size="10.00">trace events</text>
</g>
<!-- L1Cache&#45;&gt;CoalescingUnit -->
<g id="edge17" class="edge">
<title>L1Cache&#45;&gt;CoalescingUnit</title>
<g id="a_edge17"><a xlink:title="cmd ready">
<path fill="none" stroke="#2563eb" stroke-dasharray="5,2" d="M1151.9,-604.94C1106.06,-604.94 1038.37,-604.94 989.58,-604.94"/>
<polygon fill="none" stroke="#2563eb" points="989.47,-601.44 979.47,-604.94 989.47,-608.44 989.47,-601.44"/>
</a>
</g>
<text text-anchor="middle" x="1044.74" y="-596.94" font-family="Helvetica,sans-Serif" font-size="10.00">cmd ready</text>
</g>
<!-- L1Cache&#45;&gt;LoadGatherBufferFile -->
<g id="edge19" class="edge">
<title>L1Cache&#45;&gt;LoadGatherBufferFile</title>
<g id="a_edge19"><a xlink:title="try write">
<path fill="none" stroke="#2563eb" stroke-dasharray="5,2" d="M1202.4,-574.35C1202.4,-548.68 1202.4,-515.02 1202.4,-487.51"/>
<polygon fill="none" stroke="#2563eb" points="1205.9,-487.3 1202.4,-477.3 1198.9,-487.3 1205.9,-487.3"/>
</a>
</g>
<text text-anchor="middle" x="1181.4" y="-533.93" font-family="Helvetica,sans-Serif" font-size="10.00">try write</text>
</g>
<!-- L1Cache&#45;&gt;ExternalMemoryInterface -->
<g id="edge18" class="edge">
<title>L1Cache&#45;&gt;ExternalMemoryInterface</title>
<g id="a_edge18"><a xlink:title="response / next read request">
<path fill="none" stroke="#1f2937" d="M1252.9,-622.94C1298.74,-622.94 1366.43,-622.94 1415.22,-622.94"/>
<polygon fill="#1f2937" stroke="#1f2937" points="1415.33,-626.44 1425.33,-622.94 1415.33,-619.44 1415.33,-626.44"/>
</a>
</g>
<text text-anchor="middle" x="1334.06" y="-614.94" font-family="Helvetica,sans-Serif" font-size="10.00">response / next read request</text>
</g>
<!-- ExternalMemoryInterface&#45;&gt;L1Cache -->
<g id="edge14" class="edge">
<title>ExternalMemoryInterface&#45;&gt;L1Cache</title>
<g id="a_edge14"><a xlink:title="has response">
<path fill="none" stroke="#2563eb" d="M1425.5,-604.94C1379.66,-604.94 1311.97,-604.94 1263.18,-604.94"/>
<polygon fill="none" stroke="#2563eb" points="1263.07,-601.44 1253.07,-604.94 1263.07,-608.44 1263.07,-601.44"/>
</a>
</g>
<text text-anchor="middle" x="1311.84" y="-596.94" font-family="Helvetica,sans-Serif" font-size="10.00">has response</text>
</g>
<!-- WritebackArbiter&#45;&gt;PanicController -->
<g id="edge50" class="edge">
<title>WritebackArbiter&#45;&gt;PanicController</title>
<g id="a_edge50"><a xlink:title="drained">
<path fill="none" stroke="#1f2937" d="M1169.63,-212.73C1078.36,-374.54 763.12,-933.48 672.13,-1094.8"/>
<polygon fill="#1f2937" stroke="#1f2937" points="669.08,-1093.09 667.21,-1103.52 675.17,-1096.53 669.08,-1093.09"/>
</a>
</g>
<text text-anchor="middle" x="902.38" y="-656.77" font-family="Helvetica,sans-Serif" font-size="10.00">drained</text>
</g>
<!-- WritebackArbiter&#45;&gt;WarpScheduler -->
<g id="edge53" class="edge">
<title>WritebackArbiter&#45;&gt;WarpScheduler</title>
<g id="a_edge53"><a xlink:title="writeback stall">
<path fill="none" stroke="#2563eb" stroke-dasharray="5,2" d="M1151.81,-185.17C971.86,-228.68 363.2,-375.84 168.46,-422.92"/>
<polygon fill="none" stroke="#2563eb" points="167.58,-419.53 158.68,-425.29 169.23,-426.34 167.58,-419.53"/>
</a>
</g>
<text text-anchor="middle" x="623.64" y="-307.05" font-family="Helvetica,sans-Serif" font-size="10.00">writeback stall</text>
</g>
<!-- WritebackArbiter&#45;&gt;Scoreboard -->
<g id="edge51" class="edge">
<title>WritebackArbiter&#45;&gt;Scoreboard</title>
<g id="a_edge51"><a xlink:title="scoreboard">
<path fill="none" stroke="#2563eb" d="M1151.67,-200.19C1007.49,-277.66 595.72,-498.9 441.17,-581.93"/>
<polygon fill="none" stroke="#2563eb" points="439.4,-578.91 432.25,-586.73 442.71,-585.08 439.4,-578.91"/>
</a>
</g>
<text text-anchor="middle" x="768.92" y="-394.06" font-family="Helvetica,sans-Serif" font-size="10.00">scoreboard</text>
</g>
<!-- WritebackArbiter&#45;&gt;OperandCollector -->
<g id="edge49" class="edge">
<title>WritebackArbiter&#45;&gt;OperandCollector</title>
<g id="a_edge49"><a xlink:title="writeback stall">
<path fill="none" stroke="#2563eb" stroke-dasharray="5,2" d="M1151.67,-189.29C1007.77,-235.68 597.36,-367.99 442.1,-418.04"/>
<polygon fill="none" stroke="#2563eb" points="440.69,-414.81 432.25,-421.21 442.84,-421.48 440.69,-414.81"/>
</a>
</g>
<text text-anchor="middle" x="760.39" y="-306.66" font-family="Helvetica,sans-Serif" font-size="10.00">writeback stall</text>
</g>
<!-- WritebackArbiter&#45;&gt;ALUUnit -->
<g id="edge45" class="edge">
<title>WritebackArbiter&#45;&gt;ALUUnit</title>
<g id="a_edge45"><a xlink:title="writeback stall">
<path fill="none" stroke="#2563eb" stroke-dasharray="5,2" d="M1155.21,-212.62C1052.59,-328.4 783.35,-632.18 685.06,-743.08"/>
<polygon fill="none" stroke="#2563eb" points="682.3,-740.92 678.28,-750.73 687.54,-745.56 682.3,-740.92"/>
</a>
</g>
<text text-anchor="middle" x="883.63" y="-469.85" font-family="Helvetica,sans-Serif" font-size="10.00">writeback stall</text>
</g>
<!-- WritebackArbiter&#45;&gt;MultiplyUnit -->
<g id="edge48" class="edge">
<title>WritebackArbiter&#45;&gt;MultiplyUnit</title>
<g id="a_edge48"><a xlink:title="writeback stall">
<path fill="none" stroke="#2563eb" stroke-dasharray="5,2" d="M1151.51,-202.4C1049.56,-284.56 802.65,-483.55 697.87,-567.99"/>
<polygon fill="none" stroke="#2563eb" points="695.56,-565.36 689.97,-574.36 699.95,-570.81 695.56,-565.36"/>
</a>
</g>
<text text-anchor="middle" x="888.19" y="-388.2" font-family="Helvetica,sans-Serif" font-size="10.00">writeback stall</text>
</g>
<!-- WritebackArbiter&#45;&gt;DivideUnit -->
<g id="edge46" class="edge">
<title>WritebackArbiter&#45;&gt;DivideUnit</title>
<g id="a_edge46"><a xlink:title="writeback stall">
<path fill="none" stroke="#2563eb" stroke-dasharray="5,2" d="M1151.83,-187.4C1053.79,-234.81 826.26,-344.83 714.94,-398.66"/>
<polygon fill="none" stroke="#2563eb" points="713.31,-395.56 705.83,-403.06 716.36,-401.86 713.31,-395.56"/>
</a>
</g>
<text text-anchor="middle" x="896.88" y="-296.03" font-family="Helvetica,sans-Serif" font-size="10.00">writeback stall</text>
</g>
<!-- WritebackArbiter&#45;&gt;TLookupUnit -->
<g id="edge52" class="edge">
<title>WritebackArbiter&#45;&gt;TLookupUnit</title>
<g id="a_edge52"><a xlink:title="writeback stall">
<path fill="none" stroke="#2563eb" stroke-dasharray="5,2" d="M1151.44,-172.04C1051.44,-188.16 825.6,-224.56 715.9,-242.24"/>
<polygon fill="none" stroke="#2563eb" points="715.29,-238.79 705.97,-243.84 716.4,-245.7 715.29,-238.79"/>
</a>
</g>
<text text-anchor="middle" x="897.17" y="-210.14" font-family="Helvetica,sans-Serif" font-size="10.00">writeback stall</text>
</g>
<!-- WritebackArbiter&#45;&gt;LdStUnit -->
<g id="edge47" class="edge">
<title>WritebackArbiter&#45;&gt;LdStUnit</title>
<g id="a_edge47"><a xlink:title="writeback stall">
<path fill="none" stroke="#2563eb" stroke-dasharray="5,2" d="M1151.86,-155.68C1049.78,-139.22 823.66,-102.78 715.93,-85.41"/>
<polygon fill="none" stroke="#2563eb" points="716.32,-81.93 705.89,-83.79 715.2,-88.84 716.32,-81.93"/>
</a>
</g>
<text text-anchor="middle" x="897.4" y="-123.55" font-family="Helvetica,sans-Serif" font-size="10.00">writeback stall</text>
</g>
<!-- PanicController -->
<g id="node1" class="node">
<title>PanicController</title>
<path fill="#ffffff" stroke="#374151" d="M693.7,-1182.64C693.7,-1182.64 616.7,-1182.64 616.7,-1182.64 610.7,-1182.64 604.7,-1176.64 604.7,-1170.64 604.7,-1170.64 604.7,-1115.64 604.7,-1115.64 604.7,-1109.64 610.7,-1103.64 616.7,-1103.64 616.7,-1103.64 693.7,-1103.64 693.7,-1103.64 699.7,-1103.64 705.7,-1109.64 705.7,-1115.64 705.7,-1115.64 705.7,-1170.64 705.7,-1170.64 705.7,-1176.64 699.7,-1182.64 693.7,-1182.64"/>
<text text-anchor="middle" x="655.2" y="-1146.34" font-family="Helvetica,sans-Serif" font-size="11.00">Panic</text>
<text text-anchor="middle" x="655.2" y="-1134.34" font-family="Helvetica,sans-Serif" font-size="11.00">Controller</text>
</g>
<!-- TimingModel -->
<g id="node2" class="node">
<title>TimingModel</title>
<path fill="#ffffff" stroke="#374151" d="M1514.5,-1182.64C1514.5,-1182.64 1437.5,-1182.64 1437.5,-1182.64 1431.5,-1182.64 1425.5,-1176.64 1425.5,-1170.64 1425.5,-1170.64 1425.5,-1115.64 1425.5,-1115.64 1425.5,-1109.64 1431.5,-1103.64 1437.5,-1103.64 1437.5,-1103.64 1514.5,-1103.64 1514.5,-1103.64 1520.5,-1103.64 1526.5,-1109.64 1526.5,-1115.64 1526.5,-1115.64 1526.5,-1170.64 1526.5,-1170.64 1526.5,-1176.64 1520.5,-1182.64 1514.5,-1182.64"/>
<text text-anchor="middle" x="1476" y="-1146.34" font-family="Helvetica,sans-Serif" font-size="11.00">Timing</text>
<text text-anchor="middle" x="1476" y="-1134.34" font-family="Helvetica,sans-Serif" font-size="11.00">Model</text>
</g>
<!-- __ext_Control_tl -->
<!-- __ext_Control_br -->
<!-- FetchStage -->
<g id="node5" class="node">
<title>FetchStage</title>
<path fill="#ffffff" stroke="#374151" d="M146.5,-829.84C146.5,-829.84 69.5,-829.84 69.5,-829.84 63.5,-829.84 57.5,-823.84 57.5,-817.84 57.5,-817.84 57.5,-762.84 57.5,-762.84 57.5,-756.84 63.5,-750.84 69.5,-750.84 69.5,-750.84 146.5,-750.84 146.5,-750.84 152.5,-750.84 158.5,-756.84 158.5,-762.84 158.5,-762.84 158.5,-817.84 158.5,-817.84 158.5,-823.84 152.5,-829.84 146.5,-829.84"/>
<text text-anchor="middle" x="108" y="-793.54" font-family="Helvetica,sans-Serif" font-size="11.00">Fetch</text>
<text text-anchor="middle" x="108" y="-781.54" font-family="Helvetica,sans-Serif" font-size="11.00">Stage</text>
</g>
<!-- DecodeStage -->
<g id="node6" class="node">
<title>DecodeStage</title>
<path fill="#ffffff" stroke="#374151" d="M146.5,-653.44C146.5,-653.44 69.5,-653.44 69.5,-653.44 63.5,-653.44 57.5,-647.44 57.5,-641.44 57.5,-641.44 57.5,-586.44 57.5,-586.44 57.5,-580.44 63.5,-574.44 69.5,-574.44 69.5,-574.44 146.5,-574.44 146.5,-574.44 152.5,-574.44 158.5,-580.44 158.5,-586.44 158.5,-586.44 158.5,-641.44 158.5,-641.44 158.5,-647.44 152.5,-653.44 146.5,-653.44"/>
<text text-anchor="middle" x="108" y="-617.14" font-family="Helvetica,sans-Serif" font-size="11.00">Decode</text>
<text text-anchor="middle" x="108" y="-605.14" font-family="Helvetica,sans-Serif" font-size="11.00">Stage</text>
</g>
<!-- WarpScheduler -->
<g id="node7" class="node">
<title>WarpScheduler</title>
<path fill="#ffffff" stroke="#374151" d="M146.5,-477.04C146.5,-477.04 69.5,-477.04 69.5,-477.04 63.5,-477.04 57.5,-471.04 57.5,-465.04 57.5,-465.04 57.5,-410.04 57.5,-410.04 57.5,-404.04 63.5,-398.04 69.5,-398.04 69.5,-398.04 146.5,-398.04 146.5,-398.04 152.5,-398.04 158.5,-404.04 158.5,-410.04 158.5,-410.04 158.5,-465.04 158.5,-465.04 158.5,-471.04 152.5,-477.04 146.5,-477.04"/>
<text text-anchor="middle" x="108" y="-440.74" font-family="Helvetica,sans-Serif" font-size="11.00">Warp</text>
<text text-anchor="middle" x="108" y="-428.74" font-family="Helvetica,sans-Serif" font-size="11.00">Scheduler</text>
</g>
<!-- Scoreboard -->
<g id="node8" class="node">
<title>Scoreboard</title>
<path fill="#ffffff" stroke="#374151" d="M420.1,-653.44C420.1,-653.44 343.1,-653.44 343.1,-653.44 337.1,-653.44 331.1,-647.44 331.1,-641.44 331.1,-641.44 331.1,-586.44 331.1,-586.44 331.1,-580.44 337.1,-574.44 343.1,-574.44 343.1,-574.44 420.1,-574.44 420.1,-574.44 426.1,-574.44 432.1,-580.44 432.1,-586.44 432.1,-586.44 432.1,-641.44 432.1,-641.44 432.1,-647.44 426.1,-653.44 420.1,-653.44"/>
<text text-anchor="middle" x="381.6" y="-611.14" font-family="Helvetica,sans-Serif" font-size="11.00">Scoreboard</text>
</g>
<!-- BranchShadowTracker -->
<g id="node9" class="node">
<title>BranchShadowTracker</title>
<path fill="#ffffff" stroke="#374151" d="M420.1,-829.84C420.1,-829.84 343.1,-829.84 343.1,-829.84 337.1,-829.84 331.1,-823.84 331.1,-817.84 331.1,-817.84 331.1,-762.84 331.1,-762.84 331.1,-756.84 337.1,-750.84 343.1,-750.84 343.1,-750.84 420.1,-750.84 420.1,-750.84 426.1,-750.84 432.1,-756.84 432.1,-762.84 432.1,-762.84 432.1,-817.84 432.1,-817.84 432.1,-823.84 426.1,-829.84 420.1,-829.84"/>
<text text-anchor="middle" x="381.6" y="-799.54" font-family="Helvetica,sans-Serif" font-size="11.00">Branch</text>
<text text-anchor="middle" x="381.6" y="-787.54" font-family="Helvetica,sans-Serif" font-size="11.00">Shadow</text>
<text text-anchor="middle" x="381.6" y="-775.54" font-family="Helvetica,sans-Serif" font-size="11.00">Tracker</text>
</g>
<!-- OperandCollector -->
<g id="node10" class="node">
<title>OperandCollector</title>
<path fill="#ffffff" stroke="#374151" d="M420.1,-477.04C420.1,-477.04 343.1,-477.04 343.1,-477.04 337.1,-477.04 331.1,-471.04 331.1,-465.04 331.1,-465.04 331.1,-410.04 331.1,-410.04 331.1,-404.04 337.1,-398.04 343.1,-398.04 343.1,-398.04 420.1,-398.04 420.1,-398.04 426.1,-398.04 432.1,-404.04 432.1,-410.04 432.1,-410.04 432.1,-465.04 432.1,-465.04 432.1,-471.04 426.1,-477.04 420.1,-477.04"/>
<text text-anchor="middle" x="381.6" y="-440.74" font-family="Helvetica,sans-Serif" font-size="11.00">Operand</text>
<text text-anchor="middle" x="381.6" y="-428.74" font-family="Helvetica,sans-Serif" font-size="11.00">Collector</text>
</g>
<!-- __ext_Frontend_and_Issue_tl -->
<!-- __ext_Frontend_and_Issue_br -->
<!-- ALUUnit -->
<g id="node13" class="node">
<title>ALUUnit</title>
<path fill="#ffffff" stroke="#374151" d="M693.7,-829.84C693.7,-829.84 616.7,-829.84 616.7,-829.84 610.7,-829.84 604.7,-823.84 604.7,-817.84 604.7,-817.84 604.7,-762.84 604.7,-762.84 604.7,-756.84 610.7,-750.84 616.7,-750.84 616.7,-750.84 693.7,-750.84 693.7,-750.84 699.7,-750.84 705.7,-756.84 705.7,-762.84 705.7,-762.84 705.7,-817.84 705.7,-817.84 705.7,-823.84 699.7,-829.84 693.7,-829.84"/>
<text text-anchor="middle" x="655.2" y="-793.54" font-family="Helvetica,sans-Serif" font-size="11.00">ALU</text>
<text text-anchor="middle" x="655.2" y="-781.54" font-family="Helvetica,sans-Serif" font-size="11.00">Unit</text>
</g>
<!-- MultiplyUnit -->
<g id="node14" class="node">
<title>MultiplyUnit</title>
<path fill="#ffffff" stroke="#374151" d="M693.7,-653.44C693.7,-653.44 616.7,-653.44 616.7,-653.44 610.7,-653.44 604.7,-647.44 604.7,-641.44 604.7,-641.44 604.7,-586.44 604.7,-586.44 604.7,-580.44 610.7,-574.44 616.7,-574.44 616.7,-574.44 693.7,-574.44 693.7,-574.44 699.7,-574.44 705.7,-580.44 705.7,-586.44 705.7,-586.44 705.7,-641.44 705.7,-641.44 705.7,-647.44 699.7,-653.44 693.7,-653.44"/>
<text text-anchor="middle" x="655.2" y="-617.14" font-family="Helvetica,sans-Serif" font-size="11.00">Multiply</text>
<text text-anchor="middle" x="655.2" y="-605.14" font-family="Helvetica,sans-Serif" font-size="11.00">Unit</text>
</g>
<!-- DivideUnit -->
<g id="node15" class="node">
<title>DivideUnit</title>
<path fill="#ffffff" stroke="#374151" d="M693.7,-477.04C693.7,-477.04 616.7,-477.04 616.7,-477.04 610.7,-477.04 604.7,-471.04 604.7,-465.04 604.7,-465.04 604.7,-410.04 604.7,-410.04 604.7,-404.04 610.7,-398.04 616.7,-398.04 616.7,-398.04 693.7,-398.04 693.7,-398.04 699.7,-398.04 705.7,-404.04 705.7,-410.04 705.7,-410.04 705.7,-465.04 705.7,-465.04 705.7,-471.04 699.7,-477.04 693.7,-477.04"/>
<text text-anchor="middle" x="655.2" y="-440.74" font-family="Helvetica,sans-Serif" font-size="11.00">Divide</text>
<text text-anchor="middle" x="655.2" y="-428.74" font-family="Helvetica,sans-Serif" font-size="11.00">Unit</text>
</g>
<!-- TLookupUnit -->
<g id="node16" class="node">
<title>TLookupUnit</title>
<path fill="#ffffff" stroke="#374151" d="M693.7,-300.64C693.7,-300.64 616.7,-300.64 616.7,-300.64 610.7,-300.64 604.7,-294.64 604.7,-288.64 604.7,-288.64 604.7,-233.64 604.7,-233.64 604.7,-227.64 610.7,-221.64 616.7,-221.64 616.7,-221.64 693.7,-221.64 693.7,-221.64 699.7,-221.64 705.7,-227.64 705.7,-233.64 705.7,-233.64 705.7,-288.64 705.7,-288.64 705.7,-294.64 699.7,-300.64 693.7,-300.64"/>
<text text-anchor="middle" x="655.2" y="-264.34" font-family="Helvetica,sans-Serif" font-size="11.00">TLookup</text>
<text text-anchor="middle" x="655.2" y="-252.34" font-family="Helvetica,sans-Serif" font-size="11.00">Unit</text>
</g>
<!-- LdStUnit -->
<g id="node17" class="node">
<title>LdStUnit</title>
<path fill="#ffffff" stroke="#374151" d="M693.7,-124.24C693.7,-124.24 616.7,-124.24 616.7,-124.24 610.7,-124.24 604.7,-118.24 604.7,-112.24 604.7,-112.24 604.7,-57.24 604.7,-57.24 604.7,-51.24 610.7,-45.24 616.7,-45.24 616.7,-45.24 693.7,-45.24 693.7,-45.24 699.7,-45.24 705.7,-51.24 705.7,-57.24 705.7,-57.24 705.7,-112.24 705.7,-112.24 705.7,-118.24 699.7,-124.24 693.7,-124.24"/>
<text text-anchor="middle" x="655.2" y="-87.94" font-family="Helvetica,sans-Serif" font-size="11.00">LdSt</text>
<text text-anchor="middle" x="655.2" y="-75.94" font-family="Helvetica,sans-Serif" font-size="11.00">Unit</text>
</g>
<!-- __ext_Execute_tl -->
<!-- __ext_Execute_br -->
<!-- CoalescingUnit -->
<g id="node20" class="node">
<title>CoalescingUnit</title>
<path fill="#ffffff" stroke="#374151" d="M967.3,-653.44C967.3,-653.44 890.3,-653.44 890.3,-653.44 884.3,-653.44 878.3,-647.44 878.3,-641.44 878.3,-641.44 878.3,-586.44 878.3,-586.44 878.3,-580.44 884.3,-574.44 890.3,-574.44 890.3,-574.44 967.3,-574.44 967.3,-574.44 973.3,-574.44 979.3,-580.44 979.3,-586.44 979.3,-586.44 979.3,-641.44 979.3,-641.44 979.3,-647.44 973.3,-653.44 967.3,-653.44"/>
<text text-anchor="middle" x="928.8" y="-617.14" font-family="Helvetica,sans-Serif" font-size="11.00">Coalescing</text>
<text text-anchor="middle" x="928.8" y="-605.14" font-family="Helvetica,sans-Serif" font-size="11.00">Unit</text>
</g>
<!-- LoadGatherBufferFile -->
<g id="node21" class="node">
<title>LoadGatherBufferFile</title>
<path fill="#ffffff" stroke="#374151" d="M1240.9,-477.04C1240.9,-477.04 1163.9,-477.04 1163.9,-477.04 1157.9,-477.04 1151.9,-471.04 1151.9,-465.04 1151.9,-465.04 1151.9,-410.04 1151.9,-410.04 1151.9,-404.04 1157.9,-398.04 1163.9,-398.04 1163.9,-398.04 1240.9,-398.04 1240.9,-398.04 1246.9,-398.04 1252.9,-404.04 1252.9,-410.04 1252.9,-410.04 1252.9,-465.04 1252.9,-465.04 1252.9,-471.04 1246.9,-477.04 1240.9,-477.04"/>
<text text-anchor="middle" x="1202.4" y="-440.74" font-family="Helvetica,sans-Serif" font-size="11.00">LoadGather</text>
<text text-anchor="middle" x="1202.4" y="-428.74" font-family="Helvetica,sans-Serif" font-size="11.00">BufferFile</text>
</g>
<!-- L1Cache -->
<g id="node22" class="node">
<title>L1Cache</title>
<path fill="#ffffff" stroke="#374151" d="M1240.9,-653.44C1240.9,-653.44 1163.9,-653.44 1163.9,-653.44 1157.9,-653.44 1151.9,-647.44 1151.9,-641.44 1151.9,-641.44 1151.9,-586.44 1151.9,-586.44 1151.9,-580.44 1157.9,-574.44 1163.9,-574.44 1163.9,-574.44 1240.9,-574.44 1240.9,-574.44 1246.9,-574.44 1252.9,-580.44 1252.9,-586.44 1252.9,-586.44 1252.9,-641.44 1252.9,-641.44 1252.9,-647.44 1246.9,-653.44 1240.9,-653.44"/>
<text text-anchor="middle" x="1202.4" y="-617.14" font-family="Helvetica,sans-Serif" font-size="11.00">L1</text>
<text text-anchor="middle" x="1202.4" y="-605.14" font-family="Helvetica,sans-Serif" font-size="11.00">Cache</text>
</g>
<!-- ExternalMemoryInterface -->
<g id="node23" class="node">
<title>ExternalMemoryInterface</title>
<path fill="#ffffff" stroke="#374151" d="M1514.5,-653.44C1514.5,-653.44 1437.5,-653.44 1437.5,-653.44 1431.5,-653.44 1425.5,-647.44 1425.5,-641.44 1425.5,-641.44 1425.5,-586.44 1425.5,-586.44 1425.5,-580.44 1431.5,-574.44 1437.5,-574.44 1437.5,-574.44 1514.5,-574.44 1514.5,-574.44 1520.5,-574.44 1526.5,-580.44 1526.5,-586.44 1526.5,-586.44 1526.5,-641.44 1526.5,-641.44 1526.5,-647.44 1520.5,-653.44 1514.5,-653.44"/>
<text text-anchor="middle" x="1476" y="-623.14" font-family="Helvetica,sans-Serif" font-size="11.00">External</text>
<text text-anchor="middle" x="1476" y="-611.14" font-family="Helvetica,sans-Serif" font-size="11.00">Memory</text>
<text text-anchor="middle" x="1476" y="-599.14" font-family="Helvetica,sans-Serif" font-size="11.00">Interface</text>
</g>
<!-- __ext_Memory_tl -->
<!-- __ext_Memory_br -->
<!-- WritebackArbiter -->
<g id="node26" class="node">
<title>WritebackArbiter</title>
<path fill="#ffffff" stroke="#374151" d="M1240.9,-212.44C1240.9,-212.44 1163.9,-212.44 1163.9,-212.44 1157.9,-212.44 1151.9,-206.44 1151.9,-200.44 1151.9,-200.44 1151.9,-145.44 1151.9,-145.44 1151.9,-139.44 1157.9,-133.44 1163.9,-133.44 1163.9,-133.44 1240.9,-133.44 1240.9,-133.44 1246.9,-133.44 1252.9,-139.44 1252.9,-145.44 1252.9,-145.44 1252.9,-200.44 1252.9,-200.44 1252.9,-206.44 1246.9,-212.44 1240.9,-212.44"/>
<text text-anchor="middle" x="1202.4" y="-176.14" font-family="Helvetica,sans-Serif" font-size="11.00">Writeback</text>
<text text-anchor="middle" x="1202.4" y="-164.14" font-family="Helvetica,sans-Serif" font-size="11.00">Arbiter</text>
</g>
<!-- __ext_Writeback_tl -->
<!-- __ext_Writeback_br -->
</g>
</svg>
