<?xml version="1.0" encoding="UTF-8" standalone="no"?>
<!DOCTYPE svg PUBLIC "-//W3C//DTD SVG 1.1//EN"
 "http://www.w3.org/Graphics/SVG/1.1/DTD/svg11.dtd">
<!-- Generated by graphviz version 2.43.0 (0)
 -->
<!-- Title: signal_flow Pages: 1 -->
<svg width="2044pt" height="873pt"
 viewBox="0.00 0.00 2044.20 873.20" xmlns="http://www.w3.org/2000/svg" xmlns:xlink="http://www.w3.org/1999/xlink">
<g id="graph0" class="graph" transform="scale(1 1) rotate(0) translate(21.6 851.6)">
<title>signal_flow</title>
<polygon fill="white" stroke="transparent" points="-21.6,21.6 -21.6,-851.6 2022.6,-851.6 2022.6,21.6 -21.6,21.6"/>
<text text-anchor="start" x="902.5" y="-811.8" font-family="Helvetica,sans-Serif" font-weight="bold" font-size="14.00">Timing&#45;model signal flow</text>
<text text-anchor="start" x="868.5" y="-801.8" font-family="Helvetica,sans-Serif" font-size="9.00">generated from sim/{include,src}/timing/ via libclang AST</text>
<text text-anchor="start" x="670.5" y="-782.8" font-family="Helvetica,sans-Serif" font-size="14.00" fill="#1f2937">━━</text>
<text text-anchor="start" x="687.5" y="-782.8" font-family="Helvetica,sans-Serif" font-size="14.00"> REGISTERED (1&#45;cycle)</text>
<text text-anchor="start" x="852.5" y="-782.8" font-family="Helvetica,sans-Serif" font-size="14.00" fill="#d97706">┄┄</text>
<text text-anchor="start" x="869.5" y="-782.8" font-family="Helvetica,sans-Serif" font-size="14.00"> COMBINATIONAL (same&#45;cycle)</text>
<text text-anchor="start" x="1091.5" y="-782.8" font-family="Helvetica,sans-Serif" font-size="14.00" fill="#2563eb">┈┈▷</text>
<text text-anchor="start" x="1119.5" y="-782.8" font-family="Helvetica,sans-Serif" font-size="14.00"> READY/STALL (back&#45;pressure)</text>
<g id="clust1" class="cluster">
<title>cluster_Frontend_and_Issue</title>
<path fill="#dbeafe" stroke="#9ca3af" d="M1674,-8C1674,-8 1981,-8 1981,-8 1987,-8 1993,-14 1993,-20 1993,-20 1993,-743 1993,-743 1993,-749 1987,-755 1981,-755 1981,-755 1674,-755 1674,-755 1668,-755 1662,-749 1662,-743 1662,-743 1662,-20 1662,-20 1662,-14 1668,-8 1674,-8"/>
<polygon fill="white" stroke="transparent" points="1762.5,-14 1762.5,-34 1892.5,-34 1892.5,-14 1762.5,-14"/>
<text text-anchor="start" x="1765.5" y="-21.6" font-family="Helvetica,sans-Serif" font-weight="bold" font-size="13.00">Frontend &amp; Issue</text>
</g>
<g id="clust2" class="cluster">
<title>cluster_Execute</title>
<path fill="#fef3c7" stroke="#9ca3af" d="M608,-445C608,-445 1302,-445 1302,-445 1308,-445 1314,-451 1314,-457 1314,-457 1314,-584 1314,-584 1314,-590 1308,-596 1302,-596 1302,-596 608,-596 608,-596 602,-596 596,-590 596,-584 596,-584 596,-457 596,-457 596,-451 602,-445 608,-445"/>
<polygon fill="white" stroke="transparent" points="923,-451 923,-471 987,-471 987,-451 923,-451"/>
<text text-anchor="start" x="926" y="-458.6" font-family="Helvetica,sans-Serif" font-weight="bold" font-size="13.00">Execute</text>
</g>
<g id="clust3" class="cluster">
<title>cluster_Memory</title>
<path fill="#dcfce7" stroke="#9ca3af" d="M314,-306C314,-306 576,-306 576,-306 582,-306 588,-312 588,-318 588,-318 588,-743 588,-743 588,-749 582,-755 576,-755 576,-755 314,-755 314,-755 308,-755 302,-749 302,-743 302,-743 302,-318 302,-318 302,-312 308,-306 314,-306"/>
<polygon fill="white" stroke="transparent" points="412,-312 412,-332 478,-332 478,-312 412,-312"/>
<text text-anchor="start" x="415" y="-319.6" font-family="Helvetica,sans-Serif" font-weight="bold" font-size="13.00">Memory</text>
</g>
<g id="clust4" class="cluster">
<title>cluster_Writeback</title>
<path fill="#fee2e2" stroke="#9ca3af" d="M922,-147C922,-147 1040,-147 1040,-147 1046,-147 1052,-153 1052,-159 1052,-159 1052,-286 1052,-286 1052,-292 1046,-298 1040,-298 1040,-298 922,-298 922,-298 916,-298 910,-292 910,-286 910,-286 910,-159 910,-159 910,-153 916,-147 922,-147"/>
<polygon fill="white" stroke="transparent" points="940,-153 940,-173 1022,-173 1022,-153 940,-153"/>
<text text-anchor="start" x="943" y="-160.6" font-family="Helvetica,sans-Serif" font-weight="bold" font-size="13.00">Writeback</text>
</g>
<g id="clust5" class="cluster">
<title>cluster_Control</title>
<path fill="#ede9fe" stroke="#9ca3af" d="M20,-604C20,-604 282,-604 282,-604 288,-604 294,-610 294,-616 294,-616 294,-743 294,-743 294,-749 288,-755 282,-755 282,-755 20,-755 20,-755 14,-755 8,-749 8,-743 8,-743 8,-616 8,-616 8,-610 14,-604 20,-604"/>
<polygon fill="white" stroke="transparent" points="121,-610 121,-630 182,-630 182,-610 121,-610"/>
<text text-anchor="start" x="124" y="-617.6" font-family="Helvetica,sans-Serif" font-weight="bold" font-size="13.00">Control</text>
</g>
<!-- FetchStage -->
<g id="node1" class="node">
<title>FetchStage</title>
<path fill="#ffffff" stroke="#374151" d="M1842.5,-576C1842.5,-576 1765.5,-576 1765.5,-576 1759.5,-576 1753.5,-570 1753.5,-564 1753.5,-564 1753.5,-509 1753.5,-509 1753.5,-503 1759.5,-497 1765.5,-497 1765.5,-497 1842.5,-497 1842.5,-497 1848.5,-497 1854.5,-503 1854.5,-509 1854.5,-509 1854.5,-564 1854.5,-564 1854.5,-570 1848.5,-576 1842.5,-576"/>
<text text-anchor="middle" x="1804" y="-539.7" font-family="Helvetica,sans-Serif" font-size="11.00">Fetch</text>
<text text-anchor="middle" x="1804" y="-527.7" font-family="Helvetica,sans-Serif" font-size="11.00">Stage</text>
</g>
<!-- DecodeStage -->
<g id="node2" class="node">
<title>DecodeStage</title>
<path fill="#ffffff" stroke="#374151" d="M1771.5,-437C1771.5,-437 1694.5,-437 1694.5,-437 1688.5,-437 1682.5,-431 1682.5,-425 1682.5,-425 1682.5,-370 1682.5,-370 1682.5,-364 1688.5,-358 1694.5,-358 1694.5,-358 1771.5,-358 1771.5,-358 1777.5,-358 1783.5,-364 1783.5,-370 1783.5,-370 1783.5,-425 1783.5,-425 1783.5,-431 1777.5,-437 1771.5,-437"/>
<text text-anchor="middle" x="1733" y="-400.7" font-family="Helvetica,sans-Serif" font-size="11.00">Decode</text>
<text text-anchor="middle" x="1733" y="-388.7" font-family="Helvetica,sans-Serif" font-size="11.00">Stage</text>
</g>
<!-- FetchStage&#45;&gt;DecodeStage -->
<g id="edge15" class="edge">
<title>FetchStage&#45;&gt;DecodeStage</title>
<g id="a_edge15"><a xlink:title="output">
<path fill="none" stroke="#1f2937" d="M1763.5,-496.67C1763.5,-496.67 1763.5,-447.34 1763.5,-447.34"/>
<polygon fill="#1f2937" stroke="#1f2937" points="1767,-447.34 1763.5,-437.34 1760,-447.34 1767,-447.34"/>
</a>
</g>
<text text-anchor="middle" x="1747.5" y="-475" font-family="Helvetica,sans-Serif" font-size="10.00">output</text>
</g>
<!-- BranchShadowTracker -->
<g id="node5" class="node">
<title>BranchShadowTracker</title>
<path fill="#ffffff" stroke="#374151" d="M1915.5,-437C1915.5,-437 1838.5,-437 1838.5,-437 1832.5,-437 1826.5,-431 1826.5,-425 1826.5,-425 1826.5,-370 1826.5,-370 1826.5,-364 1832.5,-358 1838.5,-358 1838.5,-358 1915.5,-358 1915.5,-358 1921.5,-358 1927.5,-364 1927.5,-370 1927.5,-370 1927.5,-425 1927.5,-425 1927.5,-431 1921.5,-437 1915.5,-437"/>
<text text-anchor="middle" x="1877" y="-406.7" font-family="Helvetica,sans-Serif" font-size="11.00">Branch</text>
<text text-anchor="middle" x="1877" y="-394.7" font-family="Helvetica,sans-Serif" font-size="11.00">Shadow</text>
<text text-anchor="middle" x="1877" y="-382.7" font-family="Helvetica,sans-Serif" font-size="11.00">Tracker</text>
</g>
<!-- FetchStage&#45;&gt;BranchShadowTracker -->
<g id="edge14" class="edge">
<title>FetchStage&#45;&gt;BranchShadowTracker</title>
<g id="a_edge14"><a xlink:title="redirect applied">
<path fill="none" stroke="#1f2937" d="M1840.5,-496.67C1840.5,-496.67 1840.5,-447.34 1840.5,-447.34"/>
<polygon fill="#1f2937" stroke="#1f2937" points="1844,-447.34 1840.5,-437.34 1837,-447.34 1844,-447.34"/>
</a>
</g>
<text text-anchor="middle" x="1802" y="-475" font-family="Helvetica,sans-Serif" font-size="10.00">redirect applied</text>
</g>
<!-- DecodeStage&#45;&gt;FetchStage -->
<g id="edge8" class="edge">
<title>DecodeStage&#45;&gt;FetchStage</title>
<g id="a_edge8"><a xlink:title="ready to consume fetch / pending warp">
<path fill="none" stroke="#2563eb" stroke-dasharray="1,5" d="M1773.5,-437.33C1773.5,-437.33 1773.5,-486.66 1773.5,-486.66"/>
<polygon fill="none" stroke="#2563eb" points="1770,-486.66 1773.5,-496.66 1777,-486.66 1770,-486.66"/>
</a>
</g>
<text text-anchor="middle" x="1678" y="-454" font-family="Helvetica,sans-Serif" font-size="10.00">ready to consume fetch / pending warp</text>
</g>
<!-- TimingModel -->
<g id="node18" class="node">
<title>TimingModel</title>
<path fill="#ffffff" stroke="#374151" d="M117.5,-735C117.5,-735 40.5,-735 40.5,-735 34.5,-735 28.5,-729 28.5,-723 28.5,-723 28.5,-668 28.5,-668 28.5,-662 34.5,-656 40.5,-656 40.5,-656 117.5,-656 117.5,-656 123.5,-656 129.5,-662 129.5,-668 129.5,-668 129.5,-723 129.5,-723 129.5,-729 123.5,-735 117.5,-735"/>
<text text-anchor="middle" x="79" y="-698.7" font-family="Helvetica,sans-Serif" font-size="11.00">Timing</text>
<text text-anchor="middle" x="79" y="-686.7" font-family="Helvetica,sans-Serif" font-size="11.00">Model</text>
</g>
<!-- DecodeStage&#45;&gt;TimingModel -->
<g id="edge9" class="edge">
<title>DecodeStage&#45;&gt;TimingModel</title>
<g id="a_edge9"><a xlink:title="ebreak">
<path fill="none" stroke="#1f2937" d="M1729.83,-437.12C1729.83,-452.73 1729.83,-467 1729.83,-467 1729.83,-467 62.17,-467 62.17,-467 62.17,-467 62.17,-645.96 62.17,-645.96"/>
<polygon fill="#1f2937" stroke="#1f2937" points="58.67,-645.96 62.17,-655.96 65.67,-645.96 58.67,-645.96"/>
</a>
</g>
<text text-anchor="middle" x="804.46" y="-470" font-family="Helvetica,sans-Serif" font-size="10.00">ebreak</text>
</g>
<!-- WarpScheduler -->
<g id="node3" class="node">
<title>WarpScheduler</title>
<path fill="#ffffff" stroke="#374151" d="M1915.5,-278C1915.5,-278 1838.5,-278 1838.5,-278 1832.5,-278 1826.5,-272 1826.5,-266 1826.5,-266 1826.5,-211 1826.5,-211 1826.5,-205 1832.5,-199 1838.5,-199 1838.5,-199 1915.5,-199 1915.5,-199 1921.5,-199 1927.5,-205 1927.5,-211 1927.5,-211 1927.5,-266 1927.5,-266 1927.5,-272 1921.5,-278 1915.5,-278"/>
<text text-anchor="middle" x="1877" y="-241.7" font-family="Helvetica,sans-Serif" font-size="11.00">Warp</text>
<text text-anchor="middle" x="1877" y="-229.7" font-family="Helvetica,sans-Serif" font-size="11.00">Scheduler</text>
</g>
<!-- Scoreboard -->
<g id="node4" class="node">
<title>Scoreboard</title>
<path fill="#ffffff" stroke="#374151" d="M1915.5,-139C1915.5,-139 1838.5,-139 1838.5,-139 1832.5,-139 1826.5,-133 1826.5,-127 1826.5,-127 1826.5,-72 1826.5,-72 1826.5,-66 1832.5,-60 1838.5,-60 1838.5,-60 1915.5,-60 1915.5,-60 1921.5,-60 1927.5,-66 1927.5,-72 1927.5,-72 1927.5,-127 1927.5,-127 1927.5,-133 1921.5,-139 1915.5,-139"/>
<text text-anchor="middle" x="1877" y="-96.7" font-family="Helvetica,sans-Serif" font-size="11.00">Scoreboard</text>
</g>
<!-- WarpScheduler&#45;&gt;Scoreboard -->
<g id="edge43" class="edge">
<title>WarpScheduler&#45;&gt;Scoreboard</title>
<g id="a_edge43"><a xlink:title="scoreboard">
<path fill="none" stroke="#1f2937" d="M1860.17,-198.67C1860.17,-198.67 1860.17,-149.34 1860.17,-149.34"/>
<polygon fill="#1f2937" stroke="#1f2937" points="1863.67,-149.34 1860.17,-139.34 1856.67,-149.34 1863.67,-149.34"/>
</a>
</g>
<text text-anchor="middle" x="1832.67" y="-177" font-family="Helvetica,sans-Serif" font-size="10.00">scoreboard</text>
</g>
<!-- WarpScheduler&#45;&gt;BranchShadowTracker -->
<g id="edge42" class="edge">
<title>WarpScheduler&#45;&gt;BranchShadowTracker</title>
<g id="a_edge42"><a xlink:title="branch issued">
<path fill="none" stroke="#1f2937" d="M1893.83,-278.21C1893.83,-278.21 1893.83,-347.74 1893.83,-347.74"/>
<polygon fill="#1f2937" stroke="#1f2937" points="1890.33,-347.74 1893.83,-357.74 1897.33,-347.74 1890.33,-347.74"/>
</a>
</g>
<text text-anchor="middle" x="1859.83" y="-315.98" font-family="Helvetica,sans-Serif" font-size="10.00">branch issued</text>
</g>
<!-- Scoreboard&#45;&gt;WarpScheduler -->
<g id="edge38" class="edge">
<title>Scoreboard&#45;&gt;WarpScheduler</title>
<g id="a_edge38"><a xlink:title="scoreboard">
<path fill="none" stroke="#1f2937" d="M1893.83,-139.33C1893.83,-139.33 1893.83,-188.66 1893.83,-188.66"/>
<polygon fill="#1f2937" stroke="#1f2937" points="1890.33,-188.66 1893.83,-198.66 1897.33,-188.66 1890.33,-188.66"/>
</a>
</g>
<text text-anchor="middle" x="1866.33" y="-156" font-family="Helvetica,sans-Serif" font-size="10.00">scoreboard</text>
</g>
<!-- BranchShadowTracker&#45;&gt;WarpScheduler -->
<g id="edge4" class="edge">
<title>BranchShadowTracker&#45;&gt;WarpScheduler</title>
<g id="a_edge4"><a xlink:title="is in flight">
<path fill="none" stroke="#1f2937" d="M1910.67,-357.79C1910.67,-357.79 1910.67,-288.26 1910.67,-288.26"/>
<polygon fill="#1f2937" stroke="#1f2937" points="1914.17,-288.26 1910.67,-278.26 1907.17,-288.26 1914.17,-288.26"/>
</a>
</g>
<text text-anchor="middle" x="1886.17" y="-326.02" font-family="Helvetica,sans-Serif" font-size="10.00">is in flight</text>
</g>
<!-- OperandCollector -->
<g id="node6" class="node">
<title>OperandCollector</title>
<path fill="#ffffff" stroke="#374151" d="M1842.5,-735C1842.5,-735 1765.5,-735 1765.5,-735 1759.5,-735 1753.5,-729 1753.5,-723 1753.5,-723 1753.5,-668 1753.5,-668 1753.5,-662 1759.5,-656 1765.5,-656 1765.5,-656 1842.5,-656 1842.5,-656 1848.5,-656 1854.5,-662 1854.5,-668 1854.5,-668 1854.5,-723 1854.5,-723 1854.5,-729 1848.5,-735 1842.5,-735"/>
<text text-anchor="middle" x="1804" y="-698.7" font-family="Helvetica,sans-Serif" font-size="11.00">Operand</text>
<text text-anchor="middle" x="1804" y="-686.7" font-family="Helvetica,sans-Serif" font-size="11.00">Collector</text>
</g>
<!-- OperandCollector&#45;&gt;FetchStage -->
<g id="edge31" class="edge">
<title>OperandCollector&#45;&gt;FetchStage</title>
<g id="a_edge31"><a xlink:title="redirect">
<path fill="none" stroke="#1f2937" d="M1804,-655.79C1804,-655.79 1804,-586.26 1804,-586.26"/>
<polygon fill="#1f2937" stroke="#1f2937" points="1807.5,-586.26 1804,-576.26 1800.5,-586.26 1807.5,-586.26"/>
</a>
</g>
<text text-anchor="middle" x="1785" y="-624.02" font-family="Helvetica,sans-Serif" font-size="10.00">redirect</text>
</g>
<!-- OperandCollector&#45;&gt;DecodeStage -->
<g id="edge30" class="edge">
<title>OperandCollector&#45;&gt;DecodeStage</title>
<g id="a_edge30"><a xlink:title="redirect">
<path fill="none" stroke="#1f2937" d="M1753.36,-715C1729.49,-715 1706.17,-715 1706.17,-715 1706.17,-715 1706.17,-447.07 1706.17,-447.07"/>
<polygon fill="#1f2937" stroke="#1f2937" points="1709.67,-447.07 1706.17,-437.07 1702.67,-447.07 1709.67,-447.07"/>
</a>
</g>
<text text-anchor="middle" x="1687.17" y="-607.63" font-family="Helvetica,sans-Serif" font-size="10.00">redirect</text>
</g>
<!-- OperandCollector&#45;&gt;WarpScheduler -->
<g id="edge33" class="edge">
<title>OperandCollector&#45;&gt;WarpScheduler</title>
<g id="a_edge33"><a xlink:title="ready out">
<path fill="none" stroke="#2563eb" stroke-dasharray="1,5" d="M1854.69,-708C1895.29,-708 1945.5,-708 1945.5,-708 1945.5,-708 1945.5,-238 1945.5,-238 1945.5,-238 1937.5,-238 1937.5,-238"/>
<polygon fill="none" stroke="#2563eb" points="1937.5,-234.5 1927.5,-238 1937.5,-241.5 1937.5,-234.5"/>
</a>
</g>
<text text-anchor="middle" x="1922" y="-517.41" font-family="Helvetica,sans-Serif" font-size="10.00">ready out</text>
</g>
<!-- OperandCollector&#45;&gt;BranchShadowTracker -->
<g id="edge29" class="edge">
<title>OperandCollector&#45;&gt;BranchShadowTracker</title>
<g id="a_edge29"><a xlink:title="branch resolved">
<path fill="none" stroke="#1f2937" d="M1854.61,-682C1873.75,-682 1891,-682 1891,-682 1891,-682 1891,-447.06 1891,-447.06"/>
<polygon fill="#1f2937" stroke="#1f2937" points="1894.5,-447.06 1891,-437.06 1887.5,-447.06 1894.5,-447.06"/>
</a>
</g>
<text text-anchor="middle" x="1851.5" y="-585.73" font-family="Helvetica,sans-Serif" font-size="10.00">branch resolved</text>
</g>
<!-- PanicController -->
<g id="node17" class="node">
<title>PanicController</title>
<path fill="#ffffff" stroke="#374151" d="M261.5,-735C261.5,-735 184.5,-735 184.5,-735 178.5,-735 172.5,-729 172.5,-723 172.5,-723 172.5,-668 172.5,-668 172.5,-662 178.5,-656 184.5,-656 184.5,-656 261.5,-656 261.5,-656 267.5,-656 273.5,-662 273.5,-668 273.5,-668 273.5,-723 273.5,-723 273.5,-729 267.5,-735 261.5,-735"/>
<text text-anchor="middle" x="223" y="-698.7" font-family="Helvetica,sans-Serif" font-size="11.00">Panic</text>
<text text-anchor="middle" x="223" y="-686.7" font-family="Helvetica,sans-Serif" font-size="11.00">Controller</text>
</g>
<!-- OperandCollector&#45;&gt;PanicController -->
<g id="edge32" class="edge">
<title>OperandCollector&#45;&gt;PanicController</title>
<g id="a_edge32"><a xlink:title="drained">
<path fill="none" stroke="#2563eb" stroke-dasharray="1,5" d="M1820.83,-735.35C1820.83,-748.11 1820.83,-759 1820.83,-759 1820.83,-759 239.83,-759 239.83,-759 239.83,-759 239.83,-745.35 239.83,-745.35"/>
<polygon fill="none" stroke="#2563eb" points="243.33,-745.35 239.83,-735.35 236.33,-745.35 243.33,-745.35"/>
</a>
</g>
<text text-anchor="middle" x="1016.83" y="-762" font-family="Helvetica,sans-Serif" font-size="10.00">drained</text>
</g>
<!-- ALUUnit -->
<g id="node7" class="node">
<title>ALUUnit</title>
<path fill="#ffffff" stroke="#374151" d="M849.5,-576C849.5,-576 772.5,-576 772.5,-576 766.5,-576 760.5,-570 760.5,-564 760.5,-564 760.5,-509 760.5,-509 760.5,-503 766.5,-497 772.5,-497 772.5,-497 849.5,-497 849.5,-497 855.5,-497 861.5,-503 861.5,-509 861.5,-509 861.5,-564 861.5,-564 861.5,-570 855.5,-576 849.5,-576"/>
<text text-anchor="middle" x="811" y="-539.7" font-family="Helvetica,sans-Serif" font-size="11.00">ALU</text>
<text text-anchor="middle" x="811" y="-527.7" font-family="Helvetica,sans-Serif" font-size="11.00">Unit</text>
</g>
<!-- ALUUnit&#45;&gt;WarpScheduler -->
<g id="edge2" class="edge">
<title>ALUUnit&#45;&gt;WarpScheduler</title>
<g id="a_edge2"><a xlink:title="ready">
<path fill="none" stroke="#2563eb" stroke-dasharray="1,5" d="M827.83,-496.81C827.83,-438.88 827.83,-338 827.83,-338 827.83,-338 1877,-338 1877,-338 1877,-338 1877,-288.11 1877,-288.11"/>
<polygon fill="none" stroke="#2563eb" points="1880.5,-288.11 1877,-278.11 1873.5,-288.11 1880.5,-288.11"/>
</a>
</g>
<text text-anchor="middle" x="1283.96" y="-341" font-family="Helvetica,sans-Serif" font-size="10.00">ready</text>
</g>
<!-- WritebackArbiter -->
<g id="node16" class="node">
<title>WritebackArbiter</title>
<path fill="#ffffff" stroke="#374151" d="M1019.5,-278C1019.5,-278 942.5,-278 942.5,-278 936.5,-278 930.5,-272 930.5,-266 930.5,-266 930.5,-211 930.5,-211 930.5,-205 936.5,-199 942.5,-199 942.5,-199 1019.5,-199 1019.5,-199 1025.5,-199 1031.5,-205 1031.5,-211 1031.5,-211 1031.5,-266 1031.5,-266 1031.5,-272 1025.5,-278 1019.5,-278"/>
<text text-anchor="middle" x="981" y="-241.7" font-family="Helvetica,sans-Serif" font-size="11.00">Writeback</text>
<text text-anchor="middle" x="981" y="-229.7" font-family="Helvetica,sans-Serif" font-size="11.00">Arbiter</text>
</g>
<!-- ALUUnit&#45;&gt;WritebackArbiter -->
<g id="edge3" class="edge">
<title>ALUUnit&#45;&gt;WritebackArbiter</title>
<g id="a_edge3"><a xlink:title="result">
<path fill="none" stroke="#1f2937" d="M794.17,-496.88C794.17,-421.3 794.17,-264 794.17,-264 794.17,-264 920.44,-264 920.44,-264"/>
<polygon fill="#1f2937" stroke="#1f2937" points="920.44,-267.5 930.44,-264 920.44,-260.5 920.44,-267.5"/>
</a>
</g>
<text text-anchor="middle" x="780.17" y="-320.3" font-family="Helvetica,sans-Serif" font-size="10.00">result</text>
</g>
<!-- ALUUnit&#45;&gt;PanicController -->
<g id="edge1" class="edge">
<title>ALUUnit&#45;&gt;PanicController</title>
<g id="a_edge1"><a xlink:title="drained">
<path fill="none" stroke="#2563eb" stroke-dasharray="1,5" d="M811,-576.11C811,-589.91 811,-602 811,-602 811,-602 223,-602 223,-602 223,-602 223,-645.85 223,-645.85"/>
<polygon fill="none" stroke="#2563eb" points="219.5,-645.85 223,-655.85 226.5,-645.85 219.5,-645.85"/>
</a>
</g>
<text text-anchor="middle" x="489.52" y="-605" font-family="Helvetica,sans-Serif" font-size="10.00">drained</text>
</g>
<!-- MultiplyUnit -->
<g id="node8" class="node">
<title>MultiplyUnit</title>
<path fill="#ffffff" stroke="#374151" d="M993.5,-576C993.5,-576 916.5,-576 916.5,-576 910.5,-576 904.5,-570 904.5,-564 904.5,-564 904.5,-509 904.5,-509 904.5,-503 910.5,-497 916.5,-497 916.5,-497 993.5,-497 993.5,-497 999.5,-497 1005.5,-503 1005.5,-509 1005.5,-509 1005.5,-564 1005.5,-564 1005.5,-570 999.5,-576 993.5,-576"/>
<text text-anchor="middle" x="955" y="-539.7" font-family="Helvetica,sans-Serif" font-size="11.00">Multiply</text>
<text text-anchor="middle" x="955" y="-527.7" font-family="Helvetica,sans-Serif" font-size="11.00">Unit</text>
</g>
<!-- MultiplyUnit&#45;&gt;WarpScheduler -->
<g id="edge27" class="edge">
<title>MultiplyUnit&#45;&gt;WarpScheduler</title>
<g id="a_edge27"><a xlink:title="ready">
<path fill="none" stroke="#2563eb" stroke-dasharray="1,5" d="M1005.92,-549C1024.02,-549 1040,-549 1040,-549 1040,-549 1040,-214 1040,-214 1040,-214 1816.21,-214 1816.21,-214"/>
<polygon fill="none" stroke="#2563eb" points="1816.21,-217.5 1826.21,-214 1816.21,-210.5 1816.21,-217.5"/>
</a>
</g>
<text text-anchor="middle" x="1229.57" y="-217" font-family="Helvetica,sans-Serif" font-size="10.00">ready</text>
</g>
<!-- MultiplyUnit&#45;&gt;WritebackArbiter -->
<g id="edge28" class="edge">
<title>MultiplyUnit&#45;&gt;WritebackArbiter</title>
<g id="a_edge28"><a xlink:title="result">
<path fill="none" stroke="#1f2937" d="M968,-496.93C968,-496.93 968,-288.24 968,-288.24"/>
<polygon fill="#1f2937" stroke="#1f2937" points="971.5,-288.24 968,-278.24 964.5,-288.24 971.5,-288.24"/>
</a>
</g>
<text text-anchor="middle" x="954" y="-395.58" font-family="Helvetica,sans-Serif" font-size="10.00">result</text>
</g>
<!-- MultiplyUnit&#45;&gt;PanicController -->
<g id="edge26" class="edge">
<title>MultiplyUnit&#45;&gt;PanicController</title>
<g id="a_edge26"><a xlink:title="drained">
<path fill="none" stroke="#2563eb" stroke-dasharray="1,5" d="M955,-576.25C955,-596.12 955,-616 955,-616 955,-616 233.1,-616 233.1,-616 233.1,-616 233.1,-645.75 233.1,-645.75"/>
<polygon fill="none" stroke="#2563eb" points="229.6,-645.75 233.1,-655.75 236.6,-645.75 229.6,-645.75"/>
</a>
</g>
<text text-anchor="middle" x="580.55" y="-619" font-family="Helvetica,sans-Serif" font-size="10.00">drained</text>
</g>
<!-- DivideUnit -->
<g id="node9" class="node">
<title>DivideUnit</title>
<path fill="#ffffff" stroke="#374151" d="M1137.5,-576C1137.5,-576 1060.5,-576 1060.5,-576 1054.5,-576 1048.5,-570 1048.5,-564 1048.5,-564 1048.5,-509 1048.5,-509 1048.5,-503 1054.5,-497 1060.5,-497 1060.5,-497 1137.5,-497 1137.5,-497 1143.5,-497 1149.5,-503 1149.5,-509 1149.5,-509 1149.5,-564 1149.5,-564 1149.5,-570 1143.5,-576 1137.5,-576"/>
<text text-anchor="middle" x="1099" y="-539.7" font-family="Helvetica,sans-Serif" font-size="11.00">Divide</text>
<text text-anchor="middle" x="1099" y="-527.7" font-family="Helvetica,sans-Serif" font-size="11.00">Unit</text>
</g>
<!-- DivideUnit&#45;&gt;WarpScheduler -->
<g id="edge11" class="edge">
<title>DivideUnit&#45;&gt;WarpScheduler</title>
<g id="a_edge11"><a xlink:title="ready">
<path fill="none" stroke="#2563eb" stroke-dasharray="1,5" d="M1099,-496.72C1099,-417.16 1099,-246 1099,-246 1099,-246 1816.25,-246 1816.25,-246"/>
<polygon fill="none" stroke="#2563eb" points="1816.25,-249.5 1826.25,-246 1816.25,-242.5 1816.25,-249.5"/>
</a>
</g>
<text text-anchor="middle" x="1318.27" y="-249" font-family="Helvetica,sans-Serif" font-size="10.00">ready</text>
</g>
<!-- DivideUnit&#45;&gt;WritebackArbiter -->
<g id="edge12" class="edge">
<title>DivideUnit&#45;&gt;WritebackArbiter</title>
<g id="a_edge12"><a xlink:title="result">
<path fill="none" stroke="#1f2937" d="M1048.48,-523C1032.3,-523 1018.5,-523 1018.5,-523 1018.5,-523 1018.5,-288.06 1018.5,-288.06"/>
<polygon fill="#1f2937" stroke="#1f2937" points="1022,-288.06 1018.5,-278.06 1015,-288.06 1022,-288.06"/>
</a>
</g>
<text text-anchor="middle" x="1004.5" y="-423.52" font-family="Helvetica,sans-Serif" font-size="10.00">result</text>
</g>
<!-- DivideUnit&#45;&gt;PanicController -->
<g id="edge10" class="edge">
<title>DivideUnit&#45;&gt;PanicController</title>
<g id="a_edge10"><a xlink:title="drained">
<path fill="none" stroke="#2563eb" stroke-dasharray="1,5" d="M1099,-576.27C1099,-601.34 1099,-629 1099,-629 1099,-629 243.2,-629 243.2,-629 243.2,-629 243.2,-645.66 243.2,-645.66"/>
<polygon fill="none" stroke="#2563eb" points="239.7,-645.66 243.2,-655.66 246.7,-645.66 239.7,-645.66"/>
</a>
</g>
<text text-anchor="middle" x="670.63" y="-632" font-family="Helvetica,sans-Serif" font-size="10.00">drained</text>
</g>
<!-- TLookupUnit -->
<g id="node10" class="node">
<title>TLookupUnit</title>
<path fill="#ffffff" stroke="#374151" d="M1281.5,-576C1281.5,-576 1204.5,-576 1204.5,-576 1198.5,-576 1192.5,-570 1192.5,-564 1192.5,-564 1192.5,-509 1192.5,-509 1192.5,-503 1198.5,-497 1204.5,-497 1204.5,-497 1281.5,-497 1281.5,-497 1287.5,-497 1293.5,-503 1293.5,-509 1293.5,-509 1293.5,-564 1293.5,-564 1293.5,-570 1287.5,-576 1281.5,-576"/>
<text text-anchor="middle" x="1243" y="-539.7" font-family="Helvetica,sans-Serif" font-size="11.00">TLookup</text>
<text text-anchor="middle" x="1243" y="-527.7" font-family="Helvetica,sans-Serif" font-size="11.00">Unit</text>
</g>
<!-- TLookupUnit&#45;&gt;WarpScheduler -->
<g id="edge40" class="edge">
<title>TLookupUnit&#45;&gt;WarpScheduler</title>
<g id="a_edge40"><a xlink:title="ready">
<path fill="none" stroke="#2563eb" stroke-dasharray="1,5" d="M1259.83,-496.88C1259.83,-420.86 1259.83,-262 1259.83,-262 1259.83,-262 1816.49,-262 1816.49,-262"/>
<polygon fill="none" stroke="#2563eb" points="1816.49,-265.5 1826.49,-262 1816.49,-258.5 1816.49,-265.5"/>
</a>
</g>
<text text-anchor="middle" x="1406.72" y="-265" font-family="Helvetica,sans-Serif" font-size="10.00">ready</text>
</g>
<!-- TLookupUnit&#45;&gt;WritebackArbiter -->
<g id="edge41" class="edge">
<title>TLookupUnit&#45;&gt;WritebackArbiter</title>
<g id="a_edge41"><a xlink:title="result">
<path fill="none" stroke="#1f2937" d="M1226.17,-496.74C1226.17,-413.81 1226.17,-230 1226.17,-230 1226.17,-230 1041.5,-230 1041.5,-230"/>
<polygon fill="#1f2937" stroke="#1f2937" points="1041.5,-226.5 1031.5,-230 1041.5,-233.5 1041.5,-226.5"/>
</a>
</g>
<text text-anchor="middle" x="1212.17" y="-274.04" font-family="Helvetica,sans-Serif" font-size="10.00">result</text>
</g>
<!-- TLookupUnit&#45;&gt;PanicController -->
<g id="edge39" class="edge">
<title>TLookupUnit&#45;&gt;PanicController</title>
<g id="a_edge39"><a xlink:title="drained">
<path fill="none" stroke="#2563eb" stroke-dasharray="1,5" d="M1243,-576.08C1243,-606.02 1243,-642 1243,-642 1243,-642 253.3,-642 253.3,-642 253.3,-642 253.3,-645.78 253.3,-645.78"/>
<polygon fill="none" stroke="#2563eb" points="249.8,-645.78 253.3,-655.78 256.8,-645.78 249.8,-645.78"/>
</a>
</g>
<text text-anchor="middle" x="760.72" y="-645" font-family="Helvetica,sans-Serif" font-size="10.00">drained</text>
</g>
<!-- LdStUnit -->
<g id="node11" class="node">
<title>LdStUnit</title>
<path fill="#ffffff" stroke="#374151" d="M705.5,-576C705.5,-576 628.5,-576 628.5,-576 622.5,-576 616.5,-570 616.5,-564 616.5,-564 616.5,-509 616.5,-509 616.5,-503 622.5,-497 628.5,-497 628.5,-497 705.5,-497 705.5,-497 711.5,-497 717.5,-503 717.5,-509 717.5,-509 717.5,-564 717.5,-564 717.5,-570 711.5,-576 705.5,-576"/>
<text text-anchor="middle" x="667" y="-539.7" font-family="Helvetica,sans-Serif" font-size="11.00">LdSt</text>
<text text-anchor="middle" x="667" y="-527.7" font-family="Helvetica,sans-Serif" font-size="11.00">Unit</text>
</g>
<!-- LdStUnit&#45;&gt;WarpScheduler -->
<g id="edge22" class="edge">
<title>LdStUnit&#45;&gt;WarpScheduler</title>
<g id="a_edge22"><a xlink:title="ready">
<path fill="none" stroke="#2563eb" stroke-dasharray="1,5" d="M683.83,-496.93C683.83,-433.97 683.83,-318 683.83,-318 683.83,-318 1860.17,-318 1860.17,-318 1860.17,-318 1860.17,-288.25 1860.17,-288.25"/>
<polygon fill="none" stroke="#2563eb" points="1863.67,-288.25 1860.17,-278.25 1856.67,-288.25 1863.67,-288.25"/>
</a>
</g>
<text text-anchor="middle" x="1183.41" y="-321" font-family="Helvetica,sans-Serif" font-size="10.00">ready</text>
</g>
<!-- CoalescingUnit -->
<g id="node12" class="node">
<title>CoalescingUnit</title>
<path fill="#ffffff" stroke="#374151" d="M542.5,-735C542.5,-735 465.5,-735 465.5,-735 459.5,-735 453.5,-729 453.5,-723 453.5,-723 453.5,-668 453.5,-668 453.5,-662 459.5,-656 465.5,-656 465.5,-656 542.5,-656 542.5,-656 548.5,-656 554.5,-662 554.5,-668 554.5,-668 554.5,-723 554.5,-723 554.5,-729 548.5,-735 542.5,-735"/>
<text text-anchor="middle" x="504" y="-698.7" font-family="Helvetica,sans-Serif" font-size="11.00">Coalescing</text>
<text text-anchor="middle" x="504" y="-686.7" font-family="Helvetica,sans-Serif" font-size="11.00">Unit</text>
</g>
<!-- LdStUnit&#45;&gt;CoalescingUnit -->
<g id="edge20" class="edge">
<title>LdStUnit&#45;&gt;CoalescingUnit</title>
<g id="a_edge20"><a xlink:title="fifo empty / fifo front">
<path fill="none" stroke="#d97706" stroke-dasharray="5,2" d="M667,-576.09C667,-623.03 667,-695 667,-695 667,-695 564.68,-695 564.68,-695"/>
<polygon fill="#d97706" stroke="#d97706" points="564.68,-691.5 554.68,-695 564.68,-698.5 564.68,-691.5"/>
</a>
</g>
<text text-anchor="middle" x="616" y="-689.7" font-family="Helvetica,sans-Serif" font-size="10.00">fifo empty / fifo front</text>
</g>
<!-- LdStUnit&#45;&gt;WritebackArbiter -->
<g id="edge23" class="edge">
<title>LdStUnit&#45;&gt;WritebackArbiter</title>
<g id="a_edge23"><a xlink:title="result">
<path fill="none" stroke="#1f2937" d="M650.17,-496.8C650.17,-418.35 650.17,-251 650.17,-251 650.17,-251 920.39,-251 920.39,-251"/>
<polygon fill="#1f2937" stroke="#1f2937" points="920.39,-254.5 930.39,-251 920.39,-247.5 920.39,-254.5"/>
</a>
</g>
<text text-anchor="middle" x="648.38" y="-254" font-family="Helvetica,sans-Serif" font-size="10.00">result</text>
</g>
<!-- LdStUnit&#45;&gt;PanicController -->
<g id="edge21" class="edge">
<title>LdStUnit&#45;&gt;PanicController</title>
<g id="a_edge21"><a xlink:title="drained">
<path fill="none" stroke="#2563eb" stroke-dasharray="1,5" d="M692.25,-576.02C692.25,-583.48 692.25,-589 692.25,-589 692.25,-589 212.9,-589 212.9,-589 212.9,-589 212.9,-645.84 212.9,-645.84"/>
<polygon fill="none" stroke="#2563eb" points="209.4,-645.84 212.9,-655.84 216.4,-645.84 209.4,-645.84"/>
</a>
</g>
<text text-anchor="middle" x="412.14" y="-592" font-family="Helvetica,sans-Serif" font-size="10.00">drained</text>
</g>
<!-- CoalescingUnit&#45;&gt;LdStUnit -->
<g id="edge6" class="edge">
<title>CoalescingUnit&#45;&gt;LdStUnit</title>
<g id="a_edge6"><a xlink:title="fifo pop">
<path fill="none" stroke="#1f2937" d="M554.51,-675C593.82,-675 641.75,-675 641.75,-675 641.75,-675 641.75,-586.19 641.75,-586.19"/>
<polygon fill="#1f2937" stroke="#1f2937" points="645.25,-586.19 641.75,-576.19 638.25,-586.19 645.25,-586.19"/>
</a>
</g>
<text text-anchor="middle" x="623.25" y="-677.21" font-family="Helvetica,sans-Serif" font-size="10.00">fifo pop</text>
</g>
<!-- LoadGatherBufferFile -->
<g id="node13" class="node">
<title>LoadGatherBufferFile</title>
<path fill="#ffffff" stroke="#374151" d="M411.5,-437C411.5,-437 334.5,-437 334.5,-437 328.5,-437 322.5,-431 322.5,-425 322.5,-425 322.5,-370 322.5,-370 322.5,-364 328.5,-358 334.5,-358 334.5,-358 411.5,-358 411.5,-358 417.5,-358 423.5,-364 423.5,-370 423.5,-370 423.5,-425 423.5,-425 423.5,-431 417.5,-437 411.5,-437"/>
<text text-anchor="middle" x="373" y="-400.7" font-family="Helvetica,sans-Serif" font-size="11.00">LoadGather</text>
<text text-anchor="middle" x="373" y="-388.7" font-family="Helvetica,sans-Serif" font-size="11.00">BufferFile</text>
</g>
<!-- CoalescingUnit&#45;&gt;LoadGatherBufferFile -->
<g id="edge7" class="edge">
<title>CoalescingUnit&#45;&gt;LoadGatherBufferFile</title>
<g id="a_edge7"><a xlink:title="claim">
<path fill="none" stroke="#1f2937" d="M453.12,-708C410.36,-708 356.17,-708 356.17,-708 356.17,-708 356.17,-447.14 356.17,-447.14"/>
<polygon fill="#1f2937" stroke="#1f2937" points="359.67,-447.14 356.17,-437.14 352.67,-447.14 359.67,-447.14"/>
</a>
</g>
<text text-anchor="middle" x="342.17" y="-629.05" font-family="Helvetica,sans-Serif" font-size="10.00">claim</text>
</g>
<!-- L1Cache -->
<g id="node14" class="node">
<title>L1Cache</title>
<path fill="#ffffff" stroke="#374151" d="M542.5,-576C542.5,-576 465.5,-576 465.5,-576 459.5,-576 453.5,-570 453.5,-564 453.5,-564 453.5,-509 453.5,-509 453.5,-503 459.5,-497 465.5,-497 465.5,-497 542.5,-497 542.5,-497 548.5,-497 554.5,-503 554.5,-509 554.5,-509 554.5,-564 554.5,-564 554.5,-570 548.5,-576 542.5,-576"/>
<text text-anchor="middle" x="504" y="-539.7" font-family="Helvetica,sans-Serif" font-size="11.00">L1</text>
<text text-anchor="middle" x="504" y="-527.7" font-family="Helvetica,sans-Serif" font-size="11.00">Cache</text>
</g>
<!-- CoalescingUnit&#45;&gt;L1Cache -->
<g id="edge5" class="edge">
<title>CoalescingUnit&#45;&gt;L1Cache</title>
<g id="a_edge5"><a xlink:title="process load / process store">
<path fill="none" stroke="#1f2937" d="M487.17,-655.79C487.17,-655.79 487.17,-586.26 487.17,-586.26"/>
<polygon fill="#1f2937" stroke="#1f2937" points="490.67,-586.26 487.17,-576.26 483.67,-586.26 490.67,-586.26"/>
</a>
</g>
<text text-anchor="middle" x="419.17" y="-624.02" font-family="Helvetica,sans-Serif" font-size="10.00">process load / process store</text>
</g>
<!-- LoadGatherBufferFile&#45;&gt;CoalescingUnit -->
<g id="edge24" class="edge">
<title>LoadGatherBufferFile&#45;&gt;CoalescingUnit</title>
<g id="a_edge24"><a xlink:title="is busy">
<path fill="none" stroke="#2563eb" stroke-dasharray="1,5" d="M389.83,-437.06C389.83,-515.23 389.83,-682 389.83,-682 389.83,-682 443.26,-682 443.26,-682"/>
<polygon fill="none" stroke="#2563eb" points="443.26,-685.5 453.26,-682 443.26,-678.5 443.26,-685.5"/>
</a>
</g>
<text text-anchor="middle" x="372.33" y="-589.24" font-family="Helvetica,sans-Serif" font-size="10.00">is busy</text>
</g>
<!-- LoadGatherBufferFile&#45;&gt;WritebackArbiter -->
<g id="edge25" class="edge">
<title>LoadGatherBufferFile&#45;&gt;WritebackArbiter</title>
<g id="a_edge25"><a xlink:title="result">
<path fill="none" stroke="#1f2937" d="M373,-357.66C373,-310.42 373,-238 373,-238 373,-238 920.47,-238 920.47,-238"/>
<polygon fill="#1f2937" stroke="#1f2937" points="920.47,-241.5 930.47,-238 920.47,-234.5 920.47,-241.5"/>
</a>
</g>
<text text-anchor="middle" x="572.9" y="-241" font-family="Helvetica,sans-Serif" font-size="10.00">result</text>
</g>
<!-- L1Cache&#45;&gt;CoalescingUnit -->
<g id="edge16" class="edge">
<title>L1Cache&#45;&gt;CoalescingUnit</title>
<g id="a_edge16"><a xlink:title="is stalled">
<path fill="none" stroke="#d97706" stroke-dasharray="5,2" d="M520.83,-576.21C520.83,-576.21 520.83,-645.74 520.83,-645.74"/>
<polygon fill="#d97706" stroke="#d97706" points="517.33,-645.74 520.83,-655.74 524.33,-645.74 517.33,-645.74"/>
</a>
</g>
<text text-anchor="middle" x="543.33" y="-602.98" font-family="Helvetica,sans-Serif" font-size="10.00">is stalled</text>
</g>
<!-- L1Cache&#45;&gt;LoadGatherBufferFile -->
<g id="edge18" class="edge">
<title>L1Cache&#45;&gt;LoadGatherBufferFile</title>
<g id="a_edge18"><a xlink:title="try write">
<path fill="none" stroke="#1f2937" d="M460,-496.9C460,-455.66 460,-397 460,-397 460,-397 433.61,-397 433.61,-397"/>
<polygon fill="#1f2937" stroke="#1f2937" points="433.61,-393.5 423.61,-397 433.61,-400.5 433.61,-393.5"/>
</a>
</g>
<text text-anchor="middle" x="439" y="-436.75" font-family="Helvetica,sans-Serif" font-size="10.00">try write</text>
</g>
<!-- ExternalMemoryInterface -->
<g id="node15" class="node">
<title>ExternalMemoryInterface</title>
<path fill="#ffffff" stroke="#374151" d="M555.5,-437C555.5,-437 478.5,-437 478.5,-437 472.5,-437 466.5,-431 466.5,-425 466.5,-425 466.5,-370 466.5,-370 466.5,-364 472.5,-358 478.5,-358 478.5,-358 555.5,-358 555.5,-358 561.5,-358 567.5,-364 567.5,-370 567.5,-370 567.5,-425 567.5,-425 567.5,-431 561.5,-437 555.5,-437"/>
<text text-anchor="middle" x="517" y="-406.7" font-family="Helvetica,sans-Serif" font-size="11.00">External</text>
<text text-anchor="middle" x="517" y="-394.7" font-family="Helvetica,sans-Serif" font-size="11.00">Memory</text>
<text text-anchor="middle" x="517" y="-382.7" font-family="Helvetica,sans-Serif" font-size="11.00">Interface</text>
</g>
<!-- L1Cache&#45;&gt;ExternalMemoryInterface -->
<g id="edge17" class="edge">
<title>L1Cache&#45;&gt;ExternalMemoryInterface</title>
<g id="a_edge17"><a xlink:title="response">
<path fill="none" stroke="#1f2937" d="M495.83,-496.67C495.83,-496.67 495.83,-447.34 495.83,-447.34"/>
<polygon fill="#1f2937" stroke="#1f2937" points="499.33,-447.34 495.83,-437.34 492.33,-447.34 499.33,-447.34"/>
</a>
</g>
<text text-anchor="middle" x="473.33" y="-475" font-family="Helvetica,sans-Serif" font-size="10.00">response</text>
</g>
<!-- L1Cache&#45;&gt;TimingModel -->
<g id="edge19" class="edge">
<title>L1Cache&#45;&gt;TimingModel</title>
<g id="a_edge19"><a xlink:title="trace events">
<path fill="none" stroke="#1f2937" d="M453.13,-536C343.71,-536 95.83,-536 95.83,-536 95.83,-536 95.83,-645.66 95.83,-645.66"/>
<polygon fill="#1f2937" stroke="#1f2937" points="92.33,-645.66 95.83,-655.66 99.33,-645.66 92.33,-645.66"/>
</a>
</g>
<text text-anchor="middle" x="189.15" y="-539" font-family="Helvetica,sans-Serif" font-size="10.00">trace events</text>
</g>
<!-- ExternalMemoryInterface&#45;&gt;L1Cache -->
<g id="edge13" class="edge">
<title>ExternalMemoryInterface&#45;&gt;L1Cache</title>
<g id="a_edge13"><a xlink:title="has response">
<path fill="none" stroke="#2563eb" stroke-dasharray="1,5" d="M525.17,-437.33C525.17,-437.33 525.17,-486.66 525.17,-486.66"/>
<polygon fill="none" stroke="#2563eb" points="521.67,-486.66 525.17,-496.66 528.67,-486.66 521.67,-486.66"/>
</a>
</g>
<text text-anchor="middle" x="492.67" y="-454" font-family="Helvetica,sans-Serif" font-size="10.00">has response</text>
</g>
<!-- WritebackArbiter&#45;&gt;Scoreboard -->
<g id="edge45" class="edge">
<title>WritebackArbiter&#45;&gt;Scoreboard</title>
<g id="a_edge45"><a xlink:title="scoreboard">
<path fill="none" stroke="#1f2937" d="M981,-198.9C981,-157.66 981,-99 981,-99 981,-99 1816.26,-99 1816.26,-99"/>
<polygon fill="#1f2937" stroke="#1f2937" points="1816.26,-102.5 1826.26,-99 1816.26,-95.5 1816.26,-102.5"/>
</a>
</g>
<text text-anchor="middle" x="1321.18" y="-102" font-family="Helvetica,sans-Serif" font-size="10.00">scoreboard</text>
</g>
<!-- WritebackArbiter&#45;&gt;PanicController -->
<g id="edge44" class="edge">
<title>WritebackArbiter&#45;&gt;PanicController</title>
<g id="a_edge44"><a xlink:title="drained">
<path fill="none" stroke="#2563eb" stroke-dasharray="1,5" d="M930.49,-225C756.5,-225 192.7,-225 192.7,-225 192.7,-225 192.7,-645.79 192.7,-645.79"/>
<polygon fill="none" stroke="#2563eb" points="189.2,-645.79 192.7,-655.79 196.2,-645.79 189.2,-645.79"/>
</a>
</g>
<text text-anchor="middle" x="332.7" y="-228" font-family="Helvetica,sans-Serif" font-size="10.00">drained</text>
</g>
<!-- PanicController&#45;&gt;WarpScheduler -->
<g id="edge36" class="edge">
<title>PanicController&#45;&gt;WarpScheduler</title>
<g id="a_edge36"><a xlink:title="flush">
<path fill="none" stroke="#1f2937" d="M202.8,-655.93C202.8,-555.39 202.8,-298 202.8,-298 202.8,-298 1843.33,-298 1843.33,-298 1843.33,-298 1843.33,-288.19 1843.33,-288.19"/>
<polygon fill="#1f2937" stroke="#1f2937" points="1846.83,-288.19 1843.33,-278.19 1839.83,-288.19 1846.83,-288.19"/>
</a>
</g>
<text text-anchor="middle" x="837.01" y="-301" font-family="Helvetica,sans-Serif" font-size="10.00">flush</text>
</g>
<!-- PanicController&#45;&gt;OperandCollector -->
<g id="edge35" class="edge">
<title>PanicController&#45;&gt;OperandCollector</title>
<g id="a_edge35"><a xlink:title="flush">
<path fill="none" stroke="#1f2937" d="M206.17,-735.06C206.17,-741.97 206.17,-747 206.17,-747 206.17,-747 1787.17,-747 1787.17,-747 1787.17,-747 1787.17,-745.06 1787.17,-745.06"/>
<polygon fill="#1f2937" stroke="#1f2937" points="1790.67,-745.06 1787.17,-735.06 1783.67,-745.06 1790.67,-745.06"/>
</a>
</g>
<text text-anchor="middle" x="979.67" y="-750" font-family="Helvetica,sans-Serif" font-size="10.00">flush</text>
</g>
<!-- PanicController&#45;&gt;LoadGatherBufferFile -->
<g id="edge34" class="edge">
<title>PanicController&#45;&gt;LoadGatherBufferFile</title>
<g id="a_edge34"><a xlink:title="flush">
<path fill="none" stroke="#1f2937" d="M263.4,-655.86C263.4,-574.66 263.4,-397 263.4,-397 263.4,-397 312.37,-397 312.37,-397"/>
<polygon fill="#1f2937" stroke="#1f2937" points="312.37,-400.5 322.37,-397 312.37,-393.5 312.37,-400.5"/>
</a>
</g>
<text text-anchor="middle" x="251.4" y="-504.95" font-family="Helvetica,sans-Serif" font-size="10.00">flush</text>
</g>
<!-- PanicController&#45;&gt;WritebackArbiter -->
<g id="edge37" class="edge">
<title>PanicController&#45;&gt;WritebackArbiter</title>
<g id="a_edge37"><a xlink:title="flush">
<path fill="none" stroke="#1f2937" d="M182.6,-655.93C182.6,-540.46 182.6,-212 182.6,-212 182.6,-212 920.45,-212 920.45,-212"/>
<polygon fill="#1f2937" stroke="#1f2937" points="920.45,-215.5 930.45,-212 920.45,-208.5 920.45,-215.5"/>
</a>
</g>
<text text-anchor="middle" x="317.56" y="-215" font-family="Helvetica,sans-Serif" font-size="10.00">flush</text>
</g>
</g>
</svg>
