<?xml version="1.0" encoding="UTF-8" standalone="no"?>
<!DOCTYPE svg PUBLIC "-//W3C//DTD SVG 1.1//EN"
 "http://www.w3.org/Graphics/SVG/1.1/DTD/svg11.dtd">
<!-- Generated by graphviz version 2.43.0 (0)
 -->
<!-- Title: signal_flow Pages: 1 -->
<svg width="1621pt" height="710pt"
 viewBox="0.00 0.00 1621.20 710.20" xmlns="http://www.w3.org/2000/svg" xmlns:xlink="http://www.w3.org/1999/xlink">
<g id="graph0" class="graph" transform="scale(1 1) rotate(0) translate(21.6 688.6)">
<title>signal_flow</title>
<polygon fill="white" stroke="transparent" points="-21.6,21.6 -21.6,-688.6 1599.6,-688.6 1599.6,21.6 -21.6,21.6"/>
<text text-anchor="start" x="691" y="-648.8" font-family="Helvetica,sans-Serif" font-weight="bold" font-size="14.00">Timing&#45;model signal flow</text>
<text text-anchor="start" x="682" y="-638.8" font-family="Helvetica,sans-Serif" font-size="9.00">generated from resources/timing_discipline.md</text>
<text text-anchor="start" x="459" y="-619.8" font-family="Helvetica,sans-Serif" font-size="14.00" fill="#1f2937">━━</text>
<text text-anchor="start" x="476" y="-619.8" font-family="Helvetica,sans-Serif" font-size="14.00"> REGISTERED (1&#45;cycle)</text>
<text text-anchor="start" x="641" y="-619.8" font-family="Helvetica,sans-Serif" font-size="14.00" fill="#d97706">┄┄</text>
<text text-anchor="start" x="658" y="-619.8" font-family="Helvetica,sans-Serif" font-size="14.00"> COMBINATIONAL (same&#45;cycle)</text>
<text text-anchor="start" x="880" y="-619.8" font-family="Helvetica,sans-Serif" font-size="14.00" fill="#2563eb">┈┈▷</text>
<text text-anchor="start" x="908" y="-619.8" font-family="Helvetica,sans-Serif" font-size="14.00"> READY/STALL (back&#45;pressure)</text>
<g id="clust1" class="cluster">
<title>cluster_Frontend_and_Issue</title>
<path fill="#dbeafe" stroke="#9ca3af" d="M911,-8C911,-8 1264,-8 1264,-8 1270,-8 1276,-14 1276,-20 1276,-20 1276,-574 1276,-574 1276,-580 1270,-586 1264,-586 1264,-586 911,-586 911,-586 905,-586 899,-580 899,-574 899,-574 899,-20 899,-20 899,-14 905,-8 911,-8"/>
<polygon fill="white" stroke="transparent" points="1022.5,-14 1022.5,-34 1152.5,-34 1152.5,-14 1022.5,-14"/>
<text text-anchor="start" x="1025.5" y="-21.6" font-family="Helvetica,sans-Serif" font-weight="bold" font-size="13.00">Frontend &amp; Issue</text>
</g>
<g id="clust2" class="cluster">
<title>cluster_Execute</title>
<path fill="#fef3c7" stroke="#9ca3af" d="M185,-435C185,-435 879,-435 879,-435 885,-435 891,-441 891,-447 891,-447 891,-574 891,-574 891,-580 885,-586 879,-586 879,-586 185,-586 185,-586 179,-586 173,-580 173,-574 173,-574 173,-447 173,-447 173,-441 179,-435 185,-435"/>
<polygon fill="white" stroke="transparent" points="500,-441 500,-461 564,-461 564,-441 500,-441"/>
<text text-anchor="start" x="503" y="-448.6" font-family="Helvetica,sans-Serif" font-weight="bold" font-size="13.00">Execute</text>
</g>
<g id="clust3" class="cluster">
<title>cluster_Memory</title>
<path fill="#dcfce7" stroke="#9ca3af" d="M20,-8C20,-8 282,-8 282,-8 288,-8 294,-14 294,-20 294,-20 294,-415 294,-415 294,-421 288,-427 282,-427 282,-427 20,-427 20,-427 14,-427 8,-421 8,-415 8,-415 8,-20 8,-20 8,-14 14,-8 20,-8"/>
<polygon fill="white" stroke="transparent" points="118,-14 118,-34 184,-34 184,-14 118,-14"/>
<text text-anchor="start" x="121" y="-21.6" font-family="Helvetica,sans-Serif" font-weight="bold" font-size="13.00">Memory</text>
</g>
<g id="clust4" class="cluster">
<title>cluster_Writeback</title>
<path fill="#fee2e2" stroke="#9ca3af" d="M654,-276C654,-276 772,-276 772,-276 778,-276 784,-282 784,-288 784,-288 784,-415 784,-415 784,-421 778,-427 772,-427 772,-427 654,-427 654,-427 648,-427 642,-421 642,-415 642,-415 642,-288 642,-288 642,-282 648,-276 654,-276"/>
<polygon fill="white" stroke="transparent" points="672,-282 672,-302 754,-302 754,-282 672,-282"/>
<text text-anchor="start" x="675" y="-289.6" font-family="Helvetica,sans-Serif" font-weight="bold" font-size="13.00">Writeback</text>
</g>
<g id="clust5" class="cluster">
<title>cluster_Control</title>
<path fill="#ede9fe" stroke="#9ca3af" d="M1296,-435C1296,-435 1558,-435 1558,-435 1564,-435 1570,-441 1570,-447 1570,-447 1570,-574 1570,-574 1570,-580 1564,-586 1558,-586 1558,-586 1296,-586 1296,-586 1290,-586 1284,-580 1284,-574 1284,-574 1284,-447 1284,-447 1284,-441 1290,-435 1296,-435"/>
<polygon fill="white" stroke="transparent" points="1397,-441 1397,-461 1458,-461 1458,-441 1397,-441"/>
<text text-anchor="start" x="1400" y="-448.6" font-family="Helvetica,sans-Serif" font-weight="bold" font-size="13.00">Control</text>
</g>
<!-- FetchStage -->
<g id="node1" class="node">
<title>FetchStage</title>
<path fill="#ffffff" stroke="#374151" d="M1243.5,-407C1243.5,-407 1166.5,-407 1166.5,-407 1160.5,-407 1154.5,-401 1154.5,-395 1154.5,-395 1154.5,-340 1154.5,-340 1154.5,-334 1160.5,-328 1166.5,-328 1166.5,-328 1243.5,-328 1243.5,-328 1249.5,-328 1255.5,-334 1255.5,-340 1255.5,-340 1255.5,-395 1255.5,-395 1255.5,-401 1249.5,-407 1243.5,-407"/>
<text text-anchor="middle" x="1205" y="-370.7" font-family="Helvetica,sans-Serif" font-size="11.00">Fetch</text>
<text text-anchor="middle" x="1205" y="-358.7" font-family="Helvetica,sans-Serif" font-size="11.00">Stage</text>
</g>
<!-- BranchShadowTracker -->
<g id="node5" class="node">
<title>BranchShadowTracker</title>
<path fill="#ffffff" stroke="#374151" d="M1198.5,-268C1198.5,-268 1121.5,-268 1121.5,-268 1115.5,-268 1109.5,-262 1109.5,-256 1109.5,-256 1109.5,-201 1109.5,-201 1109.5,-195 1115.5,-189 1121.5,-189 1121.5,-189 1198.5,-189 1198.5,-189 1204.5,-189 1210.5,-195 1210.5,-201 1210.5,-201 1210.5,-256 1210.5,-256 1210.5,-262 1204.5,-268 1198.5,-268"/>
<text text-anchor="middle" x="1160" y="-237.7" font-family="Helvetica,sans-Serif" font-size="11.00">Branch</text>
<text text-anchor="middle" x="1160" y="-225.7" font-family="Helvetica,sans-Serif" font-size="11.00">Shadow</text>
<text text-anchor="middle" x="1160" y="-213.7" font-family="Helvetica,sans-Serif" font-size="11.00">Tracker</text>
</g>
<!-- FetchStage&#45;&gt;BranchShadowTracker -->
<g id="edge13" class="edge">
<title>FetchStage&#45;&gt;BranchShadowTracker</title>
<g id="a_edge13"><a xlink:title="row 5: redirect applied">
<path fill="none" stroke="#1f2937" d="M1182.5,-327.67C1182.5,-327.67 1182.5,-278.34 1182.5,-278.34"/>
<polygon fill="#1f2937" stroke="#1f2937" points="1186,-278.34 1182.5,-268.34 1179,-278.34 1186,-278.34"/>
</a>
</g>
<text text-anchor="middle" x="1144" y="-306" font-family="Helvetica,sans-Serif" font-size="10.00">redirect applied</text>
</g>
<!-- DecodeStage -->
<g id="node2" class="node">
<title>DecodeStage</title>
<path fill="#ffffff" stroke="#374151" d="M1008.5,-407C1008.5,-407 931.5,-407 931.5,-407 925.5,-407 919.5,-401 919.5,-395 919.5,-395 919.5,-340 919.5,-340 919.5,-334 925.5,-328 931.5,-328 931.5,-328 1008.5,-328 1008.5,-328 1014.5,-328 1020.5,-334 1020.5,-340 1020.5,-340 1020.5,-395 1020.5,-395 1020.5,-401 1014.5,-407 1008.5,-407"/>
<text text-anchor="middle" x="970" y="-370.7" font-family="Helvetica,sans-Serif" font-size="11.00">Decode</text>
<text text-anchor="middle" x="970" y="-358.7" font-family="Helvetica,sans-Serif" font-size="11.00">Stage</text>
</g>
<!-- DecodeStage&#45;&gt;FetchStage -->
<g id="edge8" class="edge">
<title>DecodeStage&#45;&gt;FetchStage</title>
<g id="a_edge8"><a xlink:title="row 1,2: ready / pending">
<path fill="none" stroke="#2563eb" stroke-dasharray="1,5" d="M1020.7,-343C1020.7,-343 1144.39,-343 1144.39,-343"/>
<polygon fill="none" stroke="#2563eb" points="1144.39,-346.5 1154.39,-343 1144.39,-339.5 1144.39,-346.5"/>
</a>
</g>
<text text-anchor="middle" x="1101.55" y="-335" font-family="Helvetica,sans-Serif" font-size="10.00">ready / pending</text>
</g>
<!-- TimingModel -->
<g id="node18" class="node">
<title>TimingModel</title>
<path fill="#ffffff" stroke="#374151" d="M1393.5,-566C1393.5,-566 1316.5,-566 1316.5,-566 1310.5,-566 1304.5,-560 1304.5,-554 1304.5,-554 1304.5,-499 1304.5,-499 1304.5,-493 1310.5,-487 1316.5,-487 1316.5,-487 1393.5,-487 1393.5,-487 1399.5,-487 1405.5,-493 1405.5,-499 1405.5,-499 1405.5,-554 1405.5,-554 1405.5,-560 1399.5,-566 1393.5,-566"/>
<text text-anchor="middle" x="1355" y="-529.7" font-family="Helvetica,sans-Serif" font-size="11.00">Timing</text>
<text text-anchor="middle" x="1355" y="-517.7" font-family="Helvetica,sans-Serif" font-size="11.00">Model</text>
</g>
<!-- DecodeStage&#45;&gt;TimingModel -->
<g id="edge9" class="edge">
<title>DecodeStage&#45;&gt;TimingModel</title>
<g id="a_edge9"><a xlink:title="row 13: ebreak">
<path fill="none" stroke="#1f2937" d="M1020.59,-359C1066.97,-359 1128.5,-359 1128.5,-359 1128.5,-359 1128.5,-513 1128.5,-513 1128.5,-513 1294.45,-513 1294.45,-513"/>
<polygon fill="#1f2937" stroke="#1f2937" points="1294.45,-516.5 1304.45,-513 1294.45,-509.5 1294.45,-516.5"/>
</a>
</g>
<text text-anchor="middle" x="1111.5" y="-468.02" font-family="Helvetica,sans-Serif" font-size="10.00">ebreak</text>
</g>
<!-- WarpScheduler -->
<g id="node3" class="node">
<title>WarpScheduler</title>
<path fill="#ffffff" stroke="#374151" d="M1055.5,-139C1055.5,-139 978.5,-139 978.5,-139 972.5,-139 966.5,-133 966.5,-127 966.5,-127 966.5,-72 966.5,-72 966.5,-66 972.5,-60 978.5,-60 978.5,-60 1055.5,-60 1055.5,-60 1061.5,-60 1067.5,-66 1067.5,-72 1067.5,-72 1067.5,-127 1067.5,-127 1067.5,-133 1061.5,-139 1055.5,-139"/>
<text text-anchor="middle" x="1017" y="-102.7" font-family="Helvetica,sans-Serif" font-size="11.00">Warp</text>
<text text-anchor="middle" x="1017" y="-90.7" font-family="Helvetica,sans-Serif" font-size="11.00">Scheduler</text>
</g>
<!-- WarpScheduler&#45;&gt;BranchShadowTracker -->
<g id="edge37" class="edge">
<title>WarpScheduler&#45;&gt;BranchShadowTracker</title>
<g id="a_edge37"><a xlink:title="row 5: branch issued">
<path fill="none" stroke="#1f2937" d="M1048.7,-139.29C1048.7,-181.14 1048.7,-241 1048.7,-241 1048.7,-241 1099.24,-241 1099.24,-241"/>
<polygon fill="#1f2937" stroke="#1f2937" points="1099.24,-244.5 1109.24,-241 1099.24,-237.5 1099.24,-244.5"/>
</a>
</g>
<text text-anchor="middle" x="1065.7" y="-207.41" font-family="Helvetica,sans-Serif" font-size="10.00">branch issued</text>
</g>
<!-- Scoreboard -->
<g id="node4" class="node">
<title>Scoreboard</title>
<path fill="#ffffff" stroke="#374151" d="M1008.5,-268C1008.5,-268 931.5,-268 931.5,-268 925.5,-268 919.5,-262 919.5,-256 919.5,-256 919.5,-201 919.5,-201 919.5,-195 925.5,-189 931.5,-189 931.5,-189 1008.5,-189 1008.5,-189 1014.5,-189 1020.5,-195 1020.5,-201 1020.5,-201 1020.5,-256 1020.5,-256 1020.5,-262 1014.5,-268 1008.5,-268"/>
<text text-anchor="middle" x="970" y="-225.7" font-family="Helvetica,sans-Serif" font-size="11.00">Scoreboard</text>
</g>
<!-- Scoreboard&#45;&gt;WarpScheduler -->
<g id="edge33" class="edge">
<title>Scoreboard&#45;&gt;WarpScheduler</title>
<g id="a_edge33"><a xlink:title="row 8: scoreboard">
<path fill="none" stroke="#1f2937" d="M993.5,-188.74C993.5,-188.74 993.5,-149.35 993.5,-149.35"/>
<polygon fill="#1f2937" stroke="#1f2937" points="997,-149.35 993.5,-139.35 990,-149.35 997,-149.35"/>
</a>
</g>
<text text-anchor="middle" x="966" y="-172.05" font-family="Helvetica,sans-Serif" font-size="10.00">scoreboard</text>
</g>
<!-- BranchShadowTracker&#45;&gt;WarpScheduler -->
<g id="edge4" class="edge">
<title>BranchShadowTracker&#45;&gt;WarpScheduler</title>
<g id="a_edge4"><a xlink:title="row 5: in_flight">
<path fill="none" stroke="#1f2937" d="M1109.35,-215C1083.77,-215 1058.1,-215 1058.1,-215 1058.1,-215 1058.1,-149.25 1058.1,-149.25"/>
<polygon fill="#1f2937" stroke="#1f2937" points="1061.6,-149.25 1058.1,-139.25 1054.6,-149.25 1061.6,-149.25"/>
</a>
</g>
<text text-anchor="middle" x="1048.1" y="-199.75" font-family="Helvetica,sans-Serif" font-size="10.00">in_flight</text>
</g>
<!-- OperandCollector -->
<g id="node6" class="node">
<title>OperandCollector</title>
<path fill="#ffffff" stroke="#374151" d="M1103.5,-566C1103.5,-566 1026.5,-566 1026.5,-566 1020.5,-566 1014.5,-560 1014.5,-554 1014.5,-554 1014.5,-499 1014.5,-499 1014.5,-493 1020.5,-487 1026.5,-487 1026.5,-487 1103.5,-487 1103.5,-487 1109.5,-487 1115.5,-493 1115.5,-499 1115.5,-499 1115.5,-554 1115.5,-554 1115.5,-560 1109.5,-566 1103.5,-566"/>
<text text-anchor="middle" x="1065" y="-529.7" font-family="Helvetica,sans-Serif" font-size="11.00">Operand</text>
<text text-anchor="middle" x="1065" y="-517.7" font-family="Helvetica,sans-Serif" font-size="11.00">Collector</text>
</g>
<!-- OperandCollector&#45;&gt;FetchStage -->
<g id="edge27" class="edge">
<title>OperandCollector&#45;&gt;FetchStage</title>
<g id="a_edge27"><a xlink:title="row 12: redirect">
<path fill="none" stroke="#1f2937" d="M1088.5,-486.94C1088.5,-446.95 1088.5,-391 1088.5,-391 1088.5,-391 1144.24,-391 1144.24,-391"/>
<polygon fill="#1f2937" stroke="#1f2937" points="1144.24,-394.5 1154.24,-391 1144.24,-387.5 1144.24,-394.5"/>
</a>
</g>
<text text-anchor="middle" x="1069.5" y="-414.1" font-family="Helvetica,sans-Serif" font-size="10.00">redirect</text>
</g>
<!-- OperandCollector&#45;&gt;DecodeStage -->
<g id="edge26" class="edge">
<title>OperandCollector&#45;&gt;DecodeStage</title>
<g id="a_edge26"><a xlink:title="row 12: redirect">
<path fill="none" stroke="#1f2937" d="M1029.9,-486.7C1029.9,-441.81 1029.9,-375 1029.9,-375 1029.9,-375 1028.96,-375 1028.96,-375"/>
<polygon fill="#1f2937" stroke="#1f2937" points="1030.54,-371.5 1020.54,-375 1030.54,-378.5 1030.54,-371.5"/>
</a>
</g>
<text text-anchor="middle" x="1010.9" y="-433.38" font-family="Helvetica,sans-Serif" font-size="10.00">redirect</text>
</g>
<!-- OperandCollector&#45;&gt;WarpScheduler -->
<g id="edge28" class="edge">
<title>OperandCollector&#45;&gt;WarpScheduler</title>
<g id="a_edge28"><a xlink:title="row 3: opcoll ready">
<path fill="none" stroke="#2563eb" stroke-dasharray="1,5" d="M1039.3,-486.71C1039.3,-486.71 1039.3,-149.03 1039.3,-149.03"/>
<polygon fill="none" stroke="#2563eb" points="1042.8,-149.03 1039.3,-139.03 1035.8,-149.03 1042.8,-149.03"/>
</a>
</g>
<text text-anchor="middle" x="1008.8" y="-320.87" font-family="Helvetica,sans-Serif" font-size="10.00">opcoll ready</text>
</g>
<!-- OperandCollector&#45;&gt;BranchShadowTracker -->
<g id="edge25" class="edge">
<title>OperandCollector&#45;&gt;BranchShadowTracker</title>
<g id="a_edge25"><a xlink:title="row 5: branch resolved">
<path fill="none" stroke="#1f2937" d="M1115.6,-539C1129.83,-539 1141.5,-539 1141.5,-539 1141.5,-539 1141.5,-278.14 1141.5,-278.14"/>
<polygon fill="#1f2937" stroke="#1f2937" points="1145,-278.14 1141.5,-268.14 1138,-278.14 1145,-278.14"/>
</a>
</g>
<text text-anchor="middle" x="1181" y="-424.52" font-family="Helvetica,sans-Serif" font-size="10.00">branch resolved</text>
</g>
<!-- ALUUnit -->
<g id="node7" class="node">
<title>ALUUnit</title>
<path fill="#ffffff" stroke="#374151" d="M858.5,-566C858.5,-566 781.5,-566 781.5,-566 775.5,-566 769.5,-560 769.5,-554 769.5,-554 769.5,-499 769.5,-499 769.5,-493 775.5,-487 781.5,-487 781.5,-487 858.5,-487 858.5,-487 864.5,-487 870.5,-493 870.5,-499 870.5,-499 870.5,-554 870.5,-554 870.5,-560 864.5,-566 858.5,-566"/>
<text text-anchor="middle" x="820" y="-529.7" font-family="Helvetica,sans-Serif" font-size="11.00">ALU</text>
<text text-anchor="middle" x="820" y="-517.7" font-family="Helvetica,sans-Serif" font-size="11.00">Unit</text>
</g>
<!-- ALUUnit&#45;&gt;WarpScheduler -->
<g id="edge2" class="edge">
<title>ALUUnit&#45;&gt;WarpScheduler</title>
<g id="a_edge2"><a xlink:title="row 4: ready">
<path fill="none" stroke="#2563eb" stroke-dasharray="1,5" d="M820,-486.73C820,-385.69 820,-127 820,-127 820,-127 956.27,-127 956.27,-127"/>
<polygon fill="none" stroke="#2563eb" points="956.27,-130.5 966.27,-127 956.27,-123.5 956.27,-130.5"/>
</a>
</g>
<text text-anchor="middle" x="806" y="-241.73" font-family="Helvetica,sans-Serif" font-size="10.00">ready</text>
</g>
<!-- WritebackArbiter -->
<g id="node16" class="node">
<title>WritebackArbiter</title>
<path fill="#ffffff" stroke="#374151" d="M751.5,-407C751.5,-407 674.5,-407 674.5,-407 668.5,-407 662.5,-401 662.5,-395 662.5,-395 662.5,-340 662.5,-340 662.5,-334 668.5,-328 674.5,-328 674.5,-328 751.5,-328 751.5,-328 757.5,-328 763.5,-334 763.5,-340 763.5,-340 763.5,-395 763.5,-395 763.5,-401 757.5,-407 751.5,-407"/>
<text text-anchor="middle" x="713" y="-370.7" font-family="Helvetica,sans-Serif" font-size="11.00">Writeback</text>
<text text-anchor="middle" x="713" y="-358.7" font-family="Helvetica,sans-Serif" font-size="11.00">Arbiter</text>
</g>
<!-- ALUUnit&#45;&gt;WritebackArbiter -->
<g id="edge3" class="edge">
<title>ALUUnit&#45;&gt;WritebackArbiter</title>
<g id="a_edge3"><a xlink:title="row 7: result">
<path fill="none" stroke="#1f2937" d="M769.06,-526C752.75,-526 738.83,-526 738.83,-526 738.83,-526 738.83,-417.09 738.83,-417.09"/>
<polygon fill="#1f2937" stroke="#1f2937" points="742.33,-417.09 738.83,-407.09 735.33,-417.09 742.33,-417.09"/>
</a>
</g>
<text text-anchor="middle" x="724.83" y="-478.66" font-family="Helvetica,sans-Serif" font-size="10.00">result</text>
</g>
<!-- PanicController -->
<g id="node17" class="node">
<title>PanicController</title>
<path fill="#ffffff" stroke="#374151" d="M1537.5,-566C1537.5,-566 1460.5,-566 1460.5,-566 1454.5,-566 1448.5,-560 1448.5,-554 1448.5,-554 1448.5,-499 1448.5,-499 1448.5,-493 1454.5,-487 1460.5,-487 1460.5,-487 1537.5,-487 1537.5,-487 1543.5,-487 1549.5,-493 1549.5,-499 1549.5,-499 1549.5,-554 1549.5,-554 1549.5,-560 1543.5,-566 1537.5,-566"/>
<text text-anchor="middle" x="1499" y="-529.7" font-family="Helvetica,sans-Serif" font-size="11.00">Panic</text>
<text text-anchor="middle" x="1499" y="-517.7" font-family="Helvetica,sans-Serif" font-size="11.00">Controller</text>
</g>
<!-- ALUUnit&#45;&gt;PanicController -->
<g id="edge1" class="edge">
<title>ALUUnit&#45;&gt;PanicController</title>
<g id="a_edge1"><a xlink:title="row 14: drained">
<path fill="none" stroke="#2563eb" stroke-dasharray="1,5" d="M820,-566.46C820,-572.08 820,-576 820,-576 820,-576 1462.93,-576 1462.93,-576 1462.93,-576 1462.93,-575.05 1462.93,-575.05"/>
<polygon fill="none" stroke="#2563eb" points="1466.43,-576.46 1462.93,-566.46 1459.43,-576.46 1466.43,-576.46"/>
</a>
</g>
<text text-anchor="middle" x="1118.67" y="-579" font-family="Helvetica,sans-Serif" font-size="10.00">drained</text>
</g>
<!-- MultiplyUnit -->
<g id="node8" class="node">
<title>MultiplyUnit</title>
<path fill="#ffffff" stroke="#374151" d="M714.5,-566C714.5,-566 637.5,-566 637.5,-566 631.5,-566 625.5,-560 625.5,-554 625.5,-554 625.5,-499 625.5,-499 625.5,-493 631.5,-487 637.5,-487 637.5,-487 714.5,-487 714.5,-487 720.5,-487 726.5,-493 726.5,-499 726.5,-499 726.5,-554 726.5,-554 726.5,-560 720.5,-566 714.5,-566"/>
<text text-anchor="middle" x="676" y="-529.7" font-family="Helvetica,sans-Serif" font-size="11.00">Multiply</text>
<text text-anchor="middle" x="676" y="-517.7" font-family="Helvetica,sans-Serif" font-size="11.00">Unit</text>
</g>
<!-- MultiplyUnit&#45;&gt;WarpScheduler -->
<g id="edge23" class="edge">
<title>MultiplyUnit&#45;&gt;WarpScheduler</title>
<g id="a_edge23"><a xlink:title="row 4: ready">
<path fill="none" stroke="#2563eb" stroke-dasharray="1,5" d="M644,-486.85C644,-381.92 644,-105 644,-105 644,-105 956.31,-105 956.31,-105"/>
<polygon fill="none" stroke="#2563eb" points="956.31,-108.5 966.31,-105 956.31,-101.5 956.31,-108.5"/>
</a>
</g>
<text text-anchor="middle" x="630" y="-142.77" font-family="Helvetica,sans-Serif" font-size="10.00">ready</text>
</g>
<!-- MultiplyUnit&#45;&gt;WritebackArbiter -->
<g id="edge24" class="edge">
<title>MultiplyUnit&#45;&gt;WritebackArbiter</title>
<g id="a_edge24"><a xlink:title="row 7: result">
<path fill="none" stroke="#1f2937" d="M694.5,-486.79C694.5,-486.79 694.5,-417.26 694.5,-417.26"/>
<polygon fill="#1f2937" stroke="#1f2937" points="698,-417.26 694.5,-407.26 691,-417.26 698,-417.26"/>
</a>
</g>
<text text-anchor="middle" x="680.5" y="-455.02" font-family="Helvetica,sans-Serif" font-size="10.00">result</text>
</g>
<!-- MultiplyUnit&#45;&gt;PanicController -->
<g id="edge22" class="edge">
<title>MultiplyUnit&#45;&gt;PanicController</title>
<g id="a_edge22"><a xlink:title="row 14: drained">
<path fill="none" stroke="#2563eb" stroke-dasharray="1,5" d="M676,-566.11C676,-574.56 676,-581 676,-581 676,-581 1477.36,-581 1477.36,-581 1477.36,-581 1477.36,-576.11 1477.36,-576.11"/>
<polygon fill="none" stroke="#2563eb" points="1480.86,-576.11 1477.36,-566.11 1473.86,-576.11 1480.86,-576.11"/>
</a>
</g>
<text text-anchor="middle" x="1053.18" y="-584" font-family="Helvetica,sans-Serif" font-size="10.00">drained</text>
</g>
<!-- DivideUnit -->
<g id="node9" class="node">
<title>DivideUnit</title>
<path fill="#ffffff" stroke="#374151" d="M570.5,-566C570.5,-566 493.5,-566 493.5,-566 487.5,-566 481.5,-560 481.5,-554 481.5,-554 481.5,-499 481.5,-499 481.5,-493 487.5,-487 493.5,-487 493.5,-487 570.5,-487 570.5,-487 576.5,-487 582.5,-493 582.5,-499 582.5,-499 582.5,-554 582.5,-554 582.5,-560 576.5,-566 570.5,-566"/>
<text text-anchor="middle" x="532" y="-529.7" font-family="Helvetica,sans-Serif" font-size="11.00">Divide</text>
<text text-anchor="middle" x="532" y="-517.7" font-family="Helvetica,sans-Serif" font-size="11.00">Unit</text>
</g>
<!-- DivideUnit&#45;&gt;WarpScheduler -->
<g id="edge11" class="edge">
<title>DivideUnit&#45;&gt;WarpScheduler</title>
<g id="a_edge11"><a xlink:title="row 4: ready">
<path fill="none" stroke="#2563eb" stroke-dasharray="1,5" d="M515.17,-486.88C515.17,-379.87 515.17,-93 515.17,-93 515.17,-93 956.12,-93 956.12,-93"/>
<polygon fill="none" stroke="#2563eb" points="956.12,-96.5 966.12,-93 956.12,-89.5 956.12,-96.5"/>
</a>
</g>
<text text-anchor="middle" x="524.7" y="-96" font-family="Helvetica,sans-Serif" font-size="10.00">ready</text>
</g>
<!-- DivideUnit&#45;&gt;WritebackArbiter -->
<g id="edge12" class="edge">
<title>DivideUnit&#45;&gt;WritebackArbiter</title>
<g id="a_edge12"><a xlink:title="row 7: result">
<path fill="none" stroke="#1f2937" d="M548.83,-486.9C548.83,-445.66 548.83,-387 548.83,-387 548.83,-387 652.41,-387 652.41,-387"/>
<polygon fill="#1f2937" stroke="#1f2937" points="652.41,-390.5 662.41,-387 652.41,-383.5 652.41,-390.5"/>
</a>
</g>
<text text-anchor="middle" x="536.67" y="-390" font-family="Helvetica,sans-Serif" font-size="10.00">result</text>
</g>
<!-- DivideUnit&#45;&gt;PanicController -->
<g id="edge10" class="edge">
<title>DivideUnit&#45;&gt;PanicController</title>
<g id="a_edge10"><a xlink:title="row 14: drained">
<path fill="none" stroke="#2563eb" stroke-dasharray="1,5" d="M532,-566.19C532,-577.1 532,-586 532,-586 532,-586 1491.79,-586 1491.79,-586 1491.79,-586 1491.79,-576.19 1491.79,-576.19"/>
<polygon fill="none" stroke="#2563eb" points="1495.29,-576.19 1491.79,-566.19 1488.29,-576.19 1495.29,-576.19"/>
</a>
</g>
<text text-anchor="middle" x="988.39" y="-589" font-family="Helvetica,sans-Serif" font-size="10.00">drained</text>
</g>
<!-- TLookupUnit -->
<g id="node10" class="node">
<title>TLookupUnit</title>
<path fill="#ffffff" stroke="#374151" d="M426.5,-566C426.5,-566 349.5,-566 349.5,-566 343.5,-566 337.5,-560 337.5,-554 337.5,-554 337.5,-499 337.5,-499 337.5,-493 343.5,-487 349.5,-487 349.5,-487 426.5,-487 426.5,-487 432.5,-487 438.5,-493 438.5,-499 438.5,-499 438.5,-554 438.5,-554 438.5,-560 432.5,-566 426.5,-566"/>
<text text-anchor="middle" x="388" y="-529.7" font-family="Helvetica,sans-Serif" font-size="11.00">TLookup</text>
<text text-anchor="middle" x="388" y="-517.7" font-family="Helvetica,sans-Serif" font-size="11.00">Unit</text>
</g>
<!-- TLookupUnit&#45;&gt;WarpScheduler -->
<g id="edge35" class="edge">
<title>TLookupUnit&#45;&gt;WarpScheduler</title>
<g id="a_edge35"><a xlink:title="row 4: ready">
<path fill="none" stroke="#2563eb" stroke-dasharray="1,5" d="M371.17,-486.66C371.17,-377.56 371.17,-82 371.17,-82 371.17,-82 956.32,-82 956.32,-82"/>
<polygon fill="none" stroke="#2563eb" points="956.32,-85.5 966.32,-82 956.32,-78.5 956.32,-85.5"/>
</a>
</g>
<text text-anchor="middle" x="447.41" y="-85" font-family="Helvetica,sans-Serif" font-size="10.00">ready</text>
</g>
<!-- TLookupUnit&#45;&gt;WritebackArbiter -->
<g id="edge36" class="edge">
<title>TLookupUnit&#45;&gt;WritebackArbiter</title>
<g id="a_edge36"><a xlink:title="row 7: result">
<path fill="none" stroke="#1f2937" d="M404.83,-486.66C404.83,-439.42 404.83,-367 404.83,-367 404.83,-367 652.46,-367 652.46,-367"/>
<polygon fill="#1f2937" stroke="#1f2937" points="652.46,-370.5 662.46,-367 652.46,-363.5 652.46,-370.5"/>
</a>
</g>
<text text-anchor="middle" x="454.81" y="-370" font-family="Helvetica,sans-Serif" font-size="10.00">result</text>
</g>
<!-- TLookupUnit&#45;&gt;PanicController -->
<g id="edge34" class="edge">
<title>TLookupUnit&#45;&gt;PanicController</title>
<g id="a_edge34"><a xlink:title="row 14: drained">
<path fill="none" stroke="#2563eb" stroke-dasharray="1,5" d="M388,-566.25C388,-579.52 388,-591 388,-591 388,-591 1506.21,-591 1506.21,-591 1506.21,-591 1506.21,-576.25 1506.21,-576.25"/>
<polygon fill="none" stroke="#2563eb" points="1509.71,-576.25 1506.21,-566.25 1502.71,-576.25 1509.71,-576.25"/>
</a>
</g>
<text text-anchor="middle" x="923.61" y="-594" font-family="Helvetica,sans-Serif" font-size="10.00">drained</text>
</g>
<!-- LdStUnit -->
<g id="node11" class="node">
<title>LdStUnit</title>
<path fill="#ffffff" stroke="#374151" d="M282.5,-566C282.5,-566 205.5,-566 205.5,-566 199.5,-566 193.5,-560 193.5,-554 193.5,-554 193.5,-499 193.5,-499 193.5,-493 199.5,-487 205.5,-487 205.5,-487 282.5,-487 282.5,-487 288.5,-487 294.5,-493 294.5,-499 294.5,-499 294.5,-554 294.5,-554 294.5,-560 288.5,-566 282.5,-566"/>
<text text-anchor="middle" x="244" y="-529.7" font-family="Helvetica,sans-Serif" font-size="11.00">LdSt</text>
<text text-anchor="middle" x="244" y="-517.7" font-family="Helvetica,sans-Serif" font-size="11.00">Unit</text>
</g>
<!-- LdStUnit&#45;&gt;WarpScheduler -->
<g id="edge20" class="edge">
<title>LdStUnit&#45;&gt;WarpScheduler</title>
<g id="a_edge20"><a xlink:title="row 4: ready">
<path fill="none" stroke="#2563eb" stroke-dasharray="1,5" d="M280.5,-486.87C280.5,-376.05 280.5,-71 280.5,-71 280.5,-71 956.38,-71 956.38,-71"/>
<polygon fill="none" stroke="#2563eb" points="956.38,-74.5 966.38,-71 956.38,-67.5 956.38,-74.5"/>
</a>
</g>
<text text-anchor="middle" x="396.5" y="-74" font-family="Helvetica,sans-Serif" font-size="10.00">ready</text>
</g>
<!-- CoalescingUnit -->
<g id="node12" class="node">
<title>CoalescingUnit</title>
<path fill="#ffffff" stroke="#374151" d="M246.5,-407C246.5,-407 169.5,-407 169.5,-407 163.5,-407 157.5,-401 157.5,-395 157.5,-395 157.5,-340 157.5,-340 157.5,-334 163.5,-328 169.5,-328 169.5,-328 246.5,-328 246.5,-328 252.5,-328 258.5,-334 258.5,-340 258.5,-340 258.5,-395 258.5,-395 258.5,-401 252.5,-407 246.5,-407"/>
<text text-anchor="middle" x="208" y="-370.7" font-family="Helvetica,sans-Serif" font-size="11.00">Coalescing</text>
<text text-anchor="middle" x="208" y="-358.7" font-family="Helvetica,sans-Serif" font-size="11.00">Unit</text>
</g>
<!-- LdStUnit&#45;&gt;CoalescingUnit -->
<g id="edge18" class="edge">
<title>LdStUnit&#45;&gt;CoalescingUnit</title>
<g id="a_edge18"><a xlink:title="row 7: addr_gen FIFO">
<path fill="none" stroke="#d97706" stroke-dasharray="5,2" d="M215.17,-486.79C215.17,-486.79 215.17,-417.26 215.17,-417.26"/>
<polygon fill="#d97706" stroke="#d97706" points="218.67,-417.26 215.17,-407.26 211.67,-417.26 218.67,-417.26"/>
</a>
</g>
<text text-anchor="middle" x="179.67" y="-455.02" font-family="Helvetica,sans-Serif" font-size="10.00">addr_gen FIFO</text>
</g>
<!-- LdStUnit&#45;&gt;WritebackArbiter -->
<g id="edge21" class="edge">
<title>LdStUnit&#45;&gt;WritebackArbiter</title>
<g id="a_edge21"><a xlink:title="row 7: result">
<path fill="none" stroke="#1f2937" d="M287.5,-486.66C287.5,-433.78 287.5,-347 287.5,-347 287.5,-347 652.1,-347 652.1,-347"/>
<polygon fill="#1f2937" stroke="#1f2937" points="652.1,-350.5 662.1,-347 652.1,-343.5 652.1,-350.5"/>
</a>
</g>
<text text-anchor="middle" x="385.97" y="-350" font-family="Helvetica,sans-Serif" font-size="10.00">result</text>
</g>
<!-- LdStUnit&#45;&gt;PanicController -->
<g id="edge19" class="edge">
<title>LdStUnit&#45;&gt;PanicController</title>
<g id="a_edge19"><a xlink:title="row 14: drained">
<path fill="none" stroke="#2563eb" stroke-dasharray="1,5" d="M244,-566.12C244,-581.73 244,-596 244,-596 244,-596 1520.64,-596 1520.64,-596 1520.64,-596 1520.64,-576.12 1520.64,-576.12"/>
<polygon fill="none" stroke="#2563eb" points="1524.14,-576.12 1520.64,-566.12 1517.14,-576.12 1524.14,-576.12"/>
</a>
</g>
<text text-anchor="middle" x="858.82" y="-599" font-family="Helvetica,sans-Serif" font-size="10.00">drained</text>
</g>
<!-- CoalescingUnit&#45;&gt;LdStUnit -->
<g id="edge6" class="edge">
<title>CoalescingUnit&#45;&gt;LdStUnit</title>
<g id="a_edge6"><a xlink:title="row 9: FIFO pop">
<path fill="none" stroke="#1f2937" d="M236.83,-407.21C236.83,-407.21 236.83,-476.74 236.83,-476.74"/>
<polygon fill="#1f2937" stroke="#1f2937" points="233.33,-476.74 236.83,-486.74 240.33,-476.74 233.33,-476.74"/>
</a>
</g>
<text text-anchor="middle" x="214.83" y="-433.98" font-family="Helvetica,sans-Serif" font-size="10.00">FIFO pop</text>
</g>
<!-- LoadGatherBufferFile -->
<g id="node13" class="node">
<title>LoadGatherBufferFile</title>
<path fill="#ffffff" stroke="#374151" d="M117.5,-139C117.5,-139 40.5,-139 40.5,-139 34.5,-139 28.5,-133 28.5,-127 28.5,-127 28.5,-72 28.5,-72 28.5,-66 34.5,-60 40.5,-60 40.5,-60 117.5,-60 117.5,-60 123.5,-60 129.5,-66 129.5,-72 129.5,-72 129.5,-127 129.5,-127 129.5,-133 123.5,-139 117.5,-139"/>
<text text-anchor="middle" x="79" y="-102.7" font-family="Helvetica,sans-Serif" font-size="11.00">LoadGather</text>
<text text-anchor="middle" x="79" y="-90.7" font-family="Helvetica,sans-Serif" font-size="11.00">BufferFile</text>
</g>
<!-- CoalescingUnit&#45;&gt;LoadGatherBufferFile -->
<g id="edge7" class="edge">
<title>CoalescingUnit&#45;&gt;LoadGatherBufferFile</title>
<g id="a_edge7"><a xlink:title="row 9: claim">
<path fill="none" stroke="#1f2937" d="M157.49,-367C127.72,-367 95.83,-367 95.83,-367 95.83,-367 95.83,-149.26 95.83,-149.26"/>
<polygon fill="#1f2937" stroke="#1f2937" points="99.33,-149.26 95.83,-139.26 92.33,-149.26 99.33,-149.26"/>
</a>
</g>
<text text-anchor="middle" x="81.83" y="-291.96" font-family="Helvetica,sans-Serif" font-size="10.00">claim</text>
</g>
<!-- L1Cache -->
<g id="node14" class="node">
<title>L1Cache</title>
<path fill="#ffffff" stroke="#374151" d="M246.5,-268C246.5,-268 169.5,-268 169.5,-268 163.5,-268 157.5,-262 157.5,-256 157.5,-256 157.5,-201 157.5,-201 157.5,-195 163.5,-189 169.5,-189 169.5,-189 246.5,-189 246.5,-189 252.5,-189 258.5,-195 258.5,-201 258.5,-201 258.5,-256 258.5,-256 258.5,-262 252.5,-268 246.5,-268"/>
<text text-anchor="middle" x="208" y="-231.7" font-family="Helvetica,sans-Serif" font-size="11.00">L1</text>
<text text-anchor="middle" x="208" y="-219.7" font-family="Helvetica,sans-Serif" font-size="11.00">Cache</text>
</g>
<!-- CoalescingUnit&#45;&gt;L1Cache -->
<g id="edge5" class="edge">
<title>CoalescingUnit&#45;&gt;L1Cache</title>
<g id="a_edge5"><a xlink:title="row 9: load/store">
<path fill="none" stroke="#1f2937" d="M182.75,-327.67C182.75,-327.67 182.75,-278.34 182.75,-278.34"/>
<polygon fill="#1f2937" stroke="#1f2937" points="186.25,-278.34 182.75,-268.34 179.25,-278.34 186.25,-278.34"/>
</a>
</g>
<text text-anchor="middle" x="158.25" y="-306" font-family="Helvetica,sans-Serif" font-size="10.00">load/store</text>
</g>
<!-- L1Cache&#45;&gt;CoalescingUnit -->
<g id="edge14" class="edge">
<title>L1Cache&#45;&gt;CoalescingUnit</title>
<g id="a_edge14"><a xlink:title="row 9,10: stalled">
<path fill="none" stroke="#d97706" stroke-dasharray="5,2" d="M208,-268.33C208,-268.33 208,-317.66 208,-317.66"/>
<polygon fill="#d97706" stroke="#d97706" points="204.5,-317.66 208,-327.66 211.5,-317.66 204.5,-317.66"/>
</a>
</g>
<text text-anchor="middle" x="191" y="-285" font-family="Helvetica,sans-Serif" font-size="10.00">stalled</text>
</g>
<!-- L1Cache&#45;&gt;LoadGatherBufferFile -->
<g id="edge16" class="edge">
<title>L1Cache&#45;&gt;LoadGatherBufferFile</title>
<g id="a_edge16"><a xlink:title="row 11: gather port">
<path fill="none" stroke="#1f2937" d="M165,-188.94C165,-150.86 165,-99 165,-99 165,-99 139.52,-99 139.52,-99"/>
<polygon fill="#1f2937" stroke="#1f2937" points="139.52,-95.5 129.52,-99 139.52,-102.5 139.52,-95.5"/>
</a>
</g>
<text text-anchor="middle" x="151.25" y="-123.23" font-family="Helvetica,sans-Serif" font-size="10.00">gather port</text>
</g>
<!-- ExternalMemoryInterface -->
<g id="node15" class="node">
<title>ExternalMemoryInterface</title>
<path fill="#ffffff" stroke="#374151" d="M261.5,-139C261.5,-139 184.5,-139 184.5,-139 178.5,-139 172.5,-133 172.5,-127 172.5,-127 172.5,-72 172.5,-72 172.5,-66 178.5,-60 184.5,-60 184.5,-60 261.5,-60 261.5,-60 267.5,-60 273.5,-66 273.5,-72 273.5,-72 273.5,-127 273.5,-127 273.5,-133 267.5,-139 261.5,-139"/>
<text text-anchor="middle" x="223" y="-108.7" font-family="Helvetica,sans-Serif" font-size="11.00">External</text>
<text text-anchor="middle" x="223" y="-96.7" font-family="Helvetica,sans-Serif" font-size="11.00">Memory</text>
<text text-anchor="middle" x="223" y="-84.7" font-family="Helvetica,sans-Serif" font-size="11.00">Interface</text>
</g>
<!-- L1Cache&#45;&gt;ExternalMemoryInterface -->
<g id="edge15" class="edge">
<title>L1Cache&#45;&gt;ExternalMemoryInterface</title>
<g id="a_edge15"><a xlink:title="row 15: mem req/resp">
<path fill="none" stroke="#1f2937" d="M215.5,-188.74C215.5,-188.74 215.5,-149.35 215.5,-149.35"/>
<polygon fill="#1f2937" stroke="#1f2937" points="219,-149.35 215.5,-139.35 212,-149.35 219,-149.35"/>
</a>
</g>
<text text-anchor="middle" x="181" y="-172.05" font-family="Helvetica,sans-Serif" font-size="10.00">mem req/resp</text>
</g>
<!-- L1Cache&#45;&gt;TimingModel -->
<g id="edge17" class="edge">
<title>L1Cache&#45;&gt;TimingModel</title>
<g id="a_edge17"><a xlink:title="row 10: trace events">
<path fill="none" stroke="#1f2937" d="M233.25,-268.12C233.25,-283.73 233.25,-298 233.25,-298 233.25,-298 1355,-298 1355,-298 1355,-298 1355,-476.96 1355,-476.96"/>
<polygon fill="#1f2937" stroke="#1f2937" points="1351.5,-476.96 1355,-486.96 1358.5,-476.96 1351.5,-476.96"/>
</a>
</g>
<text text-anchor="middle" x="838.17" y="-301" font-family="Helvetica,sans-Serif" font-size="10.00">trace events</text>
</g>
<!-- WritebackArbiter&#45;&gt;WarpScheduler -->
<g id="edge39" class="edge">
<title>WritebackArbiter&#45;&gt;WarpScheduler</title>
<g id="a_edge39"><a xlink:title="row 8: scoreboard">
<path fill="none" stroke="#1f2937" d="M696.17,-327.93C696.17,-257.1 696.17,-116 696.17,-116 696.17,-116 956.16,-116 956.16,-116"/>
<polygon fill="#1f2937" stroke="#1f2937" points="956.16,-119.5 966.16,-116 956.16,-112.5 956.16,-119.5"/>
</a>
</g>
<text text-anchor="middle" x="692.7" y="-119" font-family="Helvetica,sans-Serif" font-size="10.00">scoreboard</text>
</g>
<!-- WritebackArbiter&#45;&gt;Scoreboard -->
<g id="edge38" class="edge">
<title>WritebackArbiter&#45;&gt;Scoreboard</title>
<g id="a_edge38"><a xlink:title="row 8: scoreboard">
<path fill="none" stroke="#1f2937" d="M729.83,-327.9C729.83,-286.66 729.83,-228 729.83,-228 729.83,-228 909.36,-228 909.36,-228"/>
<polygon fill="#1f2937" stroke="#1f2937" points="909.36,-231.5 919.36,-228 909.36,-224.5 909.36,-231.5"/>
</a>
</g>
<text text-anchor="middle" x="742.15" y="-231" font-family="Helvetica,sans-Serif" font-size="10.00">scoreboard</text>
</g>
<!-- PanicController&#45;&gt;WarpScheduler -->
<g id="edge31" class="edge">
<title>PanicController&#45;&gt;WarpScheduler</title>
<g id="a_edge31"><a xlink:title="row 13: flush">
<path fill="none" stroke="#1f2937" d="M1524.25,-486.67C1524.25,-380.54 1524.25,-99 1524.25,-99 1524.25,-99 1077.96,-99 1077.96,-99"/>
<polygon fill="#1f2937" stroke="#1f2937" points="1077.96,-95.5 1067.96,-99 1077.96,-102.5 1077.96,-95.5"/>
</a>
</g>
<text text-anchor="middle" x="1482.94" y="-102" font-family="Helvetica,sans-Serif" font-size="10.00">flush</text>
</g>
<!-- PanicController&#45;&gt;OperandCollector -->
<g id="edge30" class="edge">
<title>PanicController&#45;&gt;OperandCollector</title>
<g id="a_edge30"><a xlink:title="row 13: flush">
<path fill="none" stroke="#1f2937" d="M1535.07,-566.24C1535.07,-569.16 1535.07,-571 1535.07,-571 1535.07,-571 1065,-571 1065,-571 1065,-571 1065,-570.52 1065,-570.52"/>
<polygon fill="#1f2937" stroke="#1f2937" points="1068.5,-576.24 1065,-566.24 1061.5,-576.24 1068.5,-576.24"/>
</a>
</g>
<text text-anchor="middle" x="1290.18" y="-574" font-family="Helvetica,sans-Serif" font-size="10.00">flush</text>
</g>
<!-- PanicController&#45;&gt;LoadGatherBufferFile -->
<g id="edge29" class="edge">
<title>PanicController&#45;&gt;LoadGatherBufferFile</title>
<g id="a_edge29"><a xlink:title="row 13: flush">
<path fill="none" stroke="#1f2937" d="M1473.75,-486.66C1473.75,-472.5 1473.75,-460 1473.75,-460 1473.75,-460 62.17,-460 62.17,-460 62.17,-460 62.17,-149.11 62.17,-149.11"/>
<polygon fill="#1f2937" stroke="#1f2937" points="65.67,-149.11 62.17,-139.11 58.67,-149.11 65.67,-149.11"/>
</a>
</g>
<text text-anchor="middle" x="613.85" y="-463" font-family="Helvetica,sans-Serif" font-size="10.00">flush</text>
</g>
<!-- PanicController&#45;&gt;WritebackArbiter -->
<g id="edge32" class="edge">
<title>PanicController&#45;&gt;WritebackArbiter</title>
<g id="a_edge32"><a xlink:title="row 13: flush">
<path fill="none" stroke="#1f2937" d="M1499,-486.85C1499,-461.36 1499,-433 1499,-433 1499,-433 751.17,-433 751.17,-433 751.17,-433 751.17,-417.11 751.17,-417.11"/>
<polygon fill="#1f2937" stroke="#1f2937" points="754.67,-417.11 751.17,-407.11 747.67,-417.11 754.67,-417.11"/>
</a>
</g>
<text text-anchor="middle" x="1132.06" y="-436" font-family="Helvetica,sans-Serif" font-size="10.00">flush</text>
</g>
</g>
</svg>
